# Blender v2.62 (sub 0) OBJ File: 'sterling_E2.blend'
# www.blender.org
o Cylinder
v -14.881669 -19.127087 -0.012929
v -14.873998 -19.132868 -0.110474
v -14.851274 -19.149990 -0.204271
v -14.814374 -19.177797 -0.290714
v -14.764712 -19.215219 -0.366483
v -14.704202 -19.260818 -0.428664
v -14.635163 -19.312841 -0.474869
v -14.560256 -19.369289 -0.503322
v -14.482350 -19.427992 -0.512929
v -14.404449 -19.486698 -0.503322
v -14.329537 -19.543144 -0.474869
v -14.260503 -19.595169 -0.428664
v -14.199992 -19.640768 -0.366483
v -14.150331 -19.678190 -0.290714
v -14.113431 -19.705996 -0.204271
v -14.090707 -19.723120 -0.110474
v -14.083035 -19.728901 -0.012929
v -14.090707 -19.723120 0.084617
v -14.113431 -19.705996 0.178413
v -14.150331 -19.678188 0.264857
v -14.199990 -19.640766 0.340625
v -14.260503 -19.595169 0.402806
v -14.329541 -19.543146 0.449011
v -14.404450 -19.486698 0.477464
v -14.482354 -19.427994 0.487071
v -14.560256 -19.369289 0.477464
v -14.635167 -19.312840 0.449010
v -14.704202 -19.260818 0.402806
v -14.764712 -19.215219 0.340624
v -14.814374 -19.177797 0.264855
v -14.851274 -19.149990 0.178412
v -14.873998 -19.132868 0.084616
v -0.124705 0.456025 -0.012931
v -0.117033 0.450244 -0.110476
v -0.094309 0.433121 -0.204273
v -0.057408 0.405314 -0.290716
v -0.007748 0.367891 -0.366485
v 0.052763 0.322293 -0.428665
v 0.121800 0.270270 -0.474870
v 0.196710 0.213821 -0.503323
v 0.274613 0.155118 -0.512931
v 0.352515 0.096414 -0.503323
v 0.427424 0.039965 -0.474870
v 0.496461 -0.012057 -0.428665
v 0.556972 -0.057656 -0.366483
v 0.606632 -0.095078 -0.290716
v 0.643532 -0.122884 -0.204272
v 0.666257 -0.140008 -0.110476
v 0.673930 -0.145790 -0.012931
v 0.666257 -0.140008 0.084614
v 0.643532 -0.122884 0.178411
v 0.606633 -0.095078 0.264854
v 0.556973 -0.057656 0.340622
v 0.496463 -0.012058 0.402803
v 0.427425 0.039966 0.449009
v 0.352515 0.096414 0.477462
v 0.274614 0.155116 0.487070
v 0.196710 0.213820 0.477463
v 0.121801 0.270269 0.449011
v 0.052764 0.322293 0.402806
v -0.007746 0.367891 0.340625
v -0.057407 0.405313 0.264857
v -0.094309 0.433120 0.178414
v -0.117033 0.450244 0.084618
v -14.482352 -19.427994 -0.012929
v 0.274611 0.155118 -0.012931
v 0.618573 -0.511355 0.924379
v 0.537385 -0.596745 0.924378
v 0.437834 -0.662663 0.924378
v 0.323745 -0.706577 0.924378
v 0.199502 -0.726800 0.924378
v 0.069882 -0.722554 0.924377
v -0.060138 -0.694004 0.924378
v -0.185559 -0.642244 0.924378
v -0.301561 -0.569264 0.924378
v -0.403687 -0.477872 0.924377
v -0.488012 -0.371577 0.924377
v -0.551295 -0.254463 0.924377
v -0.591105 -0.131034 0.924377
v -0.605912 -0.006028 0.924376
v -0.595145 0.115745 0.924376
v -0.559220 0.229609 0.924377
v -0.499516 0.331187 0.924377
v -0.418330 0.416575 0.924377
v -0.318778 0.482494 0.924376
v -0.204690 0.526408 0.924377
v -0.080447 0.546632 0.924377
v 0.049174 0.542384 0.924377
v 0.179194 0.513833 0.924378
v 0.304616 0.462075 0.924377
v 0.420619 0.389097 0.924377
v 0.522744 0.297704 0.924378
v 0.607069 0.191408 0.924378
v 0.670352 0.074294 0.924378
v 0.710161 -0.049137 0.924378
v 0.724967 -0.174140 0.924378
v 0.714201 -0.295915 0.924378
v 0.678275 -0.409779 0.924378
v 0.618573 -0.511357 -0.936537
v 0.537386 -0.596745 -0.936537
v 0.437834 -0.662664 -0.936537
v 0.323746 -0.706578 -0.936537
v 0.199502 -0.726802 -0.936538
v 0.069880 -0.722556 -0.936538
v -0.060139 -0.694004 -0.936538
v -0.185560 -0.642244 -0.936539
v -0.301561 -0.569264 -0.936538
v -0.403688 -0.477872 -0.936538
v -0.488012 -0.371577 -0.936539
v -0.551295 -0.254464 -0.936539
v -0.591104 -0.131034 -0.936538
v -0.605910 -0.006030 -0.936539
v -0.595145 0.115744 -0.936539
v -0.559219 0.229606 -0.936538
v -0.499516 0.331183 -0.936539
v -0.418330 0.416574 -0.936538
v -0.318779 0.482491 -0.936539
v -0.204690 0.526408 -0.936538
v -0.080449 0.546631 -0.936538
v 0.049173 0.542384 -0.936538
v 0.179193 0.513833 -0.936538
v 0.304614 0.462076 -0.936538
v 0.420617 0.389098 -0.936538
v 0.522741 0.297705 -0.936538
v 0.607067 0.191409 -0.936537
v 0.670351 0.074297 -0.936537
v 0.710160 -0.049134 -0.936537
v 0.724967 -0.174138 -0.936537
v 0.714203 -0.295911 -0.936537
v 0.678279 -0.409775 -0.936537
v 0.059528 -0.090084 0.924378
v 0.059529 -0.090085 -0.936538
vn -0.601794 -0.798608 0.000000
vn -0.993957 -0.109561 0.000000
vn -0.982788 -0.117985 -0.142003
vn 0.601794 0.798608 0.000000
vn -0.157476 0.977233 -0.141972
vn -0.168645 0.985656 0.000000
vn -0.949705 -0.142888 -0.278542
vn -0.124393 0.952330 -0.278542
vn -0.895993 -0.183386 -0.404370
vn -0.070650 0.911832 -0.404370
vn -0.823695 -0.237861 -0.514695
vn 0.001587 0.857356 -0.514695
vn -0.735618 -0.304239 -0.605213
vn 0.089694 0.790979 -0.605213
vn -0.635121 -0.379955 -0.672475
vn 0.190191 0.715232 -0.672475
vn -0.526048 -0.462142 -0.713889
vn 0.299234 0.633076 -0.713889
vn -0.412641 -0.547594 -0.727866
vn 0.412641 0.547594 -0.727866
vn -0.299234 -0.633076 -0.713889
vn 0.526048 0.462142 -0.713889
vn -0.190191 -0.715232 -0.672475
vn 0.635121 0.379955 -0.672475
vn -0.089694 -0.790979 -0.605213
vn 0.735618 0.304239 -0.605213
vn -0.001587 -0.857356 -0.514695
vn 0.823695 0.237861 -0.514664
vn 0.070681 -0.911832 -0.404370
vn 0.895993 0.183386 -0.404370
vn 0.124393 -0.952330 -0.278542
vn 0.949705 0.142888 -0.278542
vn 0.157476 -0.977233 -0.142003
vn 0.982788 0.117954 -0.142003
vn 0.168645 -0.985656 0.000000
vn 0.993957 0.109561 0.000000
vn 0.157476 -0.977233 0.142003
vn 0.982788 0.117954 0.142003
vn 0.124393 -0.952330 0.278542
vn 0.949705 0.142888 0.278542
vn 0.070681 -0.911832 0.404370
vn 0.895993 0.183386 0.404370
vn -0.001587 -0.857356 0.514695
vn 0.823695 0.237861 0.514664
vn -0.089663 -0.790979 0.605182
vn 0.735618 0.304239 0.605213
vn -0.190191 -0.715232 0.672475
vn 0.635121 0.379986 0.672475
vn -0.299234 -0.633076 0.713889
vn 0.526048 0.462142 0.713889
vn -0.412641 -0.547594 0.727866
vn 0.412641 0.547594 0.727866
vn -0.526048 -0.462142 0.713889
vn 0.299234 0.633076 0.713889
vn -0.635121 -0.379955 0.672475
vn 0.190191 0.715232 0.672475
vn -0.735618 -0.304239 0.605182
vn 0.089694 0.790979 0.605213
vn -0.823695 -0.237861 0.514664
vn 0.001587 0.857356 0.514664
vn -0.895993 -0.183386 0.404370
vn -0.070681 0.911832 0.404370
vn -0.949705 -0.142888 0.278542
vn -0.124393 0.952300 0.278542
vn -0.982788 -0.117985 0.142003
vn -0.157476 0.977233 0.141972
vn 0.000000 0.000000 1.000000
vn 0.469497 -0.559984 0.682607
vn 0.583850 -0.439955 0.682272
vn 0.000000 0.000000 -1.000000
vn 0.583850 -0.439955 -0.682272
vn 0.469497 -0.559984 -0.682607
vn 0.334574 -0.648762 0.683462
vn 0.334574 -0.648762 -0.683462
vn 0.190466 -0.703513 0.684652
vn 0.190466 -0.703513 -0.684652
vn 0.046754 -0.726157 0.685934
vn 0.046754 -0.726157 -0.685903
vn -0.090182 -0.720969 0.687063
vn -0.090182 -0.720969 -0.687033
vn -0.217078 -0.692526 0.687918
vn -0.217078 -0.692526 -0.687918
vn -0.332621 -0.644459 0.688467
vn -0.332621 -0.644459 -0.688467
vn -0.436354 -0.579058 0.688650
vn -0.436354 -0.579058 -0.688650
vn -0.527818 -0.497391 0.688467
vn -0.527818 -0.497391 -0.688467
vn -0.605853 -0.399579 0.687918
vn -0.605853 -0.399579 -0.687918
vn -0.668172 -0.285409 0.687063
vn -0.668172 -0.285409 -0.687063
vn -0.710898 -0.155187 0.685903
vn -0.710898 -0.155187 -0.685903
vn -0.728751 -0.010804 0.684652
vn -0.728751 -0.010804 -0.684652
vn -0.715842 0.142796 0.683462
vn -0.715842 0.142796 -0.683462
vn -0.667714 0.296976 0.682607
vn -0.667684 0.296976 -0.682607
vn -0.583850 0.439955 0.682272
vn -0.583850 0.439955 -0.682272
vn -0.469497 0.559984 0.682607
vn -0.469497 0.559984 -0.682607
vn -0.334574 0.648762 0.683462
vn -0.334574 0.648762 -0.683462
vn -0.190466 0.703513 0.684652
vn -0.190466 0.703513 -0.684652
vn -0.046754 0.726157 0.685903
vn -0.046754 0.726157 -0.685903
vn 0.090182 0.720969 0.687063
vn 0.090182 0.720969 -0.687063
vn 0.217078 0.692526 0.687918
vn 0.217078 0.692526 -0.687918
vn 0.332621 0.644459 0.688467
vn 0.332621 0.644459 -0.688467
vn 0.436354 0.579058 0.688650
vn 0.436354 0.579058 -0.688650
vn 0.527818 0.497391 0.688467
vn 0.527818 0.497391 -0.688467
vn 0.605853 0.399579 0.687918
vn 0.605853 0.399579 -0.687918
vn 0.668172 0.285409 0.687063
vn 0.668172 0.285409 -0.687033
vn 0.710898 0.155187 0.685934
vn 0.710898 0.155187 -0.685934
vn 0.728751 0.010834 0.684652
vn 0.728751 0.010834 -0.684652
vn 0.715842 -0.142796 0.683462
vn 0.715842 -0.142796 -0.683462
vn 0.667684 -0.296976 0.682607
vn 0.667714 -0.296976 -0.682607
s 1
f 65//1 1//2 2//3
f 66//4 34//5 33//6
f 65//1 2//3 3//7
f 66//4 35//8 34//5
f 65//1 3//7 4//9
f 66//4 36//10 35//8
f 65//1 4//9 5//11
f 66//4 37//12 36//10
f 65//1 5//11 6//13
f 66//4 38//14 37//12
f 65//1 6//13 7//15
f 66//4 39//16 38//14
f 65//1 7//15 8//17
f 66//4 40//18 39//16
f 65//1 8//17 9//19
f 66//4 41//20 40//18
f 65//1 9//19 10//21
f 66//4 42//22 41//20
f 65//1 10//21 11//23
f 66//4 43//24 42//22
f 65//1 11//23 12//25
f 66//4 44//26 43//24
f 65//1 12//25 13//27
f 66//4 45//28 44//26
f 65//1 13//27 14//29
f 66//4 46//30 45//28
f 65//1 14//29 15//31
f 66//4 47//32 46//30
f 65//1 15//31 16//33
f 66//4 48//34 47//32
f 65//1 16//33 17//35
f 66//4 49//36 48//34
f 65//1 17//35 18//37
f 66//4 50//38 49//36
f 65//1 18//37 19//39
f 66//4 51//40 50//38
f 65//1 19//39 20//41
f 66//4 52//42 51//40
f 65//1 20//41 21//43
f 66//4 53//44 52//42
f 65//1 21//43 22//45
f 66//4 54//46 53//44
f 65//1 22//45 23//47
f 66//4 55//48 54//46
f 65//1 23//47 24//49
f 66//4 56//50 55//48
f 65//1 24//49 25//51
f 66//4 57//52 56//50
f 65//1 25//51 26//53
f 66//4 58//54 57//52
f 65//1 26//53 27//55
f 66//4 59//56 58//54
f 65//1 27//55 28//57
f 66//4 60//58 59//56
f 65//1 28//57 29//59
f 66//4 61//60 60//58
f 65//1 29//59 30//61
f 66//4 62//62 61//60
f 65//1 30//61 31//63
f 66//4 63//64 62//62
f 65//1 31//63 32//65
f 66//4 64//66 63//64
f 32//65 1//2 65//1
f 66//4 33//6 64//66
f 1//2 33//6 34//5
f 1//2 34//5 2//3
f 2//3 34//5 35//8
f 2//3 35//8 3//7
f 3//7 35//8 36//10
f 3//7 36//10 4//9
f 4//9 36//10 37//12
f 4//9 37//12 5//11
f 5//11 37//12 38//14
f 5//11 38//14 6//13
f 6//13 38//14 39//16
f 6//13 39//16 7//15
f 7//15 39//16 40//18
f 7//15 40//18 8//17
f 8//17 40//18 41//20
f 8//17 41//20 9//19
f 9//19 41//20 42//22
f 9//19 42//22 10//21
f 10//21 42//22 43//24
f 10//21 43//24 11//23
f 11//23 43//24 44//26
f 11//23 44//26 12//25
f 12//25 44//26 45//28
f 12//25 45//28 13//27
f 13//27 45//28 46//30
f 13//27 46//30 14//29
f 14//29 46//30 47//32
f 14//29 47//32 15//31
f 15//31 47//32 48//34
f 15//31 48//34 16//33
f 16//33 48//34 49//36
f 16//33 49//36 17//35
f 17//35 49//36 50//38
f 17//35 50//38 18//37
f 18//37 50//38 51//40
f 18//37 51//40 19//39
f 19//39 51//40 52//42
f 19//39 52//42 20//41
f 20//41 52//42 53//44
f 20//41 53//44 21//43
f 21//43 53//44 54//46
f 21//43 54//46 22//45
f 22//45 54//46 55//48
f 22//45 55//48 23//47
f 23//47 55//48 56//50
f 23//47 56//50 24//49
f 24//49 56//50 57//52
f 24//49 57//52 25//51
f 25//51 57//52 58//54
f 25//51 58//54 26//53
f 26//53 58//54 59//56
f 26//53 59//56 27//55
f 27//55 59//56 60//58
f 27//55 60//58 28//57
f 28//57 60//58 61//60
f 28//57 61//60 29//59
f 29//59 61//60 62//62
f 29//59 62//62 30//61
f 30//61 62//62 63//64
f 30//61 63//64 31//63
f 31//63 63//64 64//66
f 31//63 64//66 32//65
f 33//6 1//2 32//65
f 33//6 32//65 64//66
f 131//67 68//68 67//69
f 132//70 99//71 100//72
f 131//67 69//73 68//68
f 132//70 100//72 101//74
f 131//67 70//75 69//73
f 132//70 101//74 102//76
f 131//67 71//77 70//75
f 132//70 102//76 103//78
f 131//67 72//79 71//77
f 132//70 103//78 104//80
f 131//67 73//81 72//79
f 132//70 104//80 105//82
f 131//67 74//83 73//81
f 132//70 105//82 106//84
f 131//67 75//85 74//83
f 132//70 106//84 107//86
f 131//67 76//87 75//85
f 132//70 107//86 108//88
f 131//67 77//89 76//87
f 132//70 108//88 109//90
f 131//67 78//91 77//89
f 132//70 109//90 110//92
f 131//67 79//93 78//91
f 132//70 110//92 111//94
f 131//67 80//95 79//93
f 132//70 111//94 112//96
f 131//67 81//97 80//95
f 132//70 112//96 113//98
f 131//67 82//99 81//97
f 132//70 113//98 114//100
f 131//67 83//101 82//99
f 132//70 114//100 115//102
f 131//67 84//103 83//101
f 132//70 115//102 116//104
f 131//67 85//105 84//103
f 132//70 116//104 117//106
f 131//67 86//107 85//105
f 132//70 117//106 118//108
f 131//67 87//109 86//107
f 132//70 118//108 119//110
f 131//67 88//111 87//109
f 132//70 119//110 120//112
f 131//67 89//113 88//111
f 132//70 120//112 121//114
f 131//67 90//115 89//113
f 132//70 121//114 122//116
f 131//67 91//117 90//115
f 132//70 122//116 123//118
f 131//67 92//119 91//117
f 132//70 123//118 124//120
f 131//67 93//121 92//119
f 132//70 124//120 125//122
f 131//67 94//123 93//121
f 132//70 125//122 126//124
f 131//67 95//125 94//123
f 132//70 126//124 127//126
f 131//67 96//127 95//125
f 132//70 127//126 128//128
f 131//67 97//129 96//127
f 132//70 128//128 129//130
f 131//67 98//131 97//129
f 132//70 129//130 130//132
f 131//67 67//69 98//131
f 132//70 130//132 99//71
f 67//69 68//68 100//72
f 67//69 100//72 99//71
f 68//68 69//73 101//74
f 68//68 101//74 100//72
f 69//73 70//75 102//76
f 69//73 102//76 101//74
f 70//75 71//77 103//78
f 70//75 103//78 102//76
f 71//77 72//79 104//80
f 71//77 104//80 103//78
f 72//79 73//81 105//82
f 72//79 105//82 104//80
f 73//81 74//83 106//84
f 73//81 106//84 105//82
f 74//83 75//85 107//86
f 74//83 107//86 106//84
f 75//85 76//87 108//88
f 75//85 108//88 107//86
f 76//87 77//89 109//90
f 76//87 109//90 108//88
f 77//89 78//91 110//92
f 77//89 110//92 109//90
f 78//91 79//93 111//94
f 78//91 111//94 110//92
f 79//93 80//95 112//96
f 79//93 112//96 111//94
f 80//95 81//97 113//98
f 80//95 113//98 112//96
f 81//97 82//99 114//100
f 81//97 114//100 113//98
f 82//99 83//101 115//102
f 82//99 115//102 114//100
f 83//101 84//103 116//104
f 83//101 116//104 115//102
f 84//103 85//105 117//106
f 84//103 117//106 116//104
f 85//105 86//107 118//108
f 85//105 118//108 117//106
f 86//107 87//109 119//110
f 86//107 119//110 118//108
f 87//109 88//111 120//112
f 87//109 120//112 119//110
f 88//111 89//113 121//114
f 88//111 121//114 120//112
f 89//113 90//115 122//116
f 89//113 122//116 121//114
f 90//115 91//117 123//118
f 90//115 123//118 122//116
f 91//117 92//119 124//120
f 91//117 124//120 123//118
f 92//119 93//121 125//122
f 92//119 125//122 124//120
f 93//121 94//123 126//124
f 93//121 126//124 125//122
f 94//123 95//125 127//126
f 94//123 127//126 126//124
f 95//125 96//127 128//128
f 95//125 128//128 127//126
f 96//127 97//129 129//130
f 96//127 129//130 128//128
f 97//129 98//131 130//132
f 97//129 130//132 129//130
f 98//131 67//69 99//71
f 98//131 99//71 130//132
