# Blender v2.62 (sub 0) OBJ File: ''
# www.blender.org
mtllib sterling_D.mtl
o Mesh.001_Cylinder.003
v 27.047457 0.068224 -0.012929
v 27.047457 -0.431776 -0.012929
v 27.047457 -0.422168 -0.110474
v -0.283654 0.068215 -0.012931
v -0.283654 -0.422177 -0.110476
v -0.283654 -0.431785 -0.012931
v 27.047459 -0.393715 -0.204271
v -0.283655 -0.393724 -0.204273
v 27.047459 -0.347510 -0.290714
v -0.283655 -0.347519 -0.290716
v 27.047457 -0.285329 -0.366483
v -0.283654 -0.285338 -0.366485
v 27.047457 -0.209561 -0.428664
v -0.283654 -0.209569 -0.428665
v 27.047457 -0.123117 -0.474869
v -0.283654 -0.123126 -0.474870
v 27.047457 -0.029321 -0.503322
v -0.283655 -0.029329 -0.503323
v 27.047455 0.068224 -0.512929
v -0.283655 0.068216 -0.512931
v 27.047457 0.165769 -0.503322
v -0.283655 0.165761 -0.503323
v 27.047455 0.259566 -0.474869
v -0.283654 0.259557 -0.474870
v 27.047457 0.346009 -0.428664
v -0.283655 0.346001 -0.428665
v 27.047457 0.421778 -0.366483
v -0.283654 0.421769 -0.366483
v 27.047457 0.483959 -0.290714
v -0.283655 0.483950 -0.290716
v 27.047457 0.530164 -0.204271
v -0.283655 0.530155 -0.204272
v 27.047455 0.558617 -0.110474
v -0.283655 0.558608 -0.110476
v 27.047457 0.568224 -0.012929
v -0.283655 0.568215 -0.012931
v 27.047455 0.558617 0.084617
v -0.283655 0.558608 0.084614
v 27.047455 0.530164 0.178413
v -0.283655 0.530155 0.178411
v 27.047455 0.483959 0.264857
v -0.283655 0.483950 0.264854
v 27.047455 0.421778 0.340625
v -0.283654 0.421769 0.340622
v 27.047457 0.346009 0.402806
v -0.283655 0.346001 0.402803
v 27.047457 0.259566 0.449011
v -0.283655 0.259558 0.449009
v 27.047457 0.165769 0.477464
v -0.283654 0.165762 0.477462
v 27.047457 0.068224 0.487071
v -0.283654 0.068217 0.487070
v 27.047457 -0.029321 0.477464
v -0.283654 -0.029328 0.477463
v 27.047457 -0.123118 0.449010
v -0.283654 -0.123125 0.449011
v 27.047457 -0.209561 0.402806
v -0.283654 -0.209568 0.402806
v 27.047457 -0.285329 0.340624
v -0.283655 -0.285336 0.340625
v 27.047459 -0.347511 0.264855
v -0.283654 -0.347518 0.264857
v 27.047459 -0.393716 0.178412
v -0.283654 -0.393724 0.178414
v 27.047457 -0.422168 0.084616
v -0.283654 -0.422177 0.084618
v 0.041614 0.044008 0.924378
v 0.158669 0.730558 0.924378
v 0.041614 0.744008 0.924379
v 0.041614 0.044009 -0.936538
v 0.041615 0.744009 -0.936537
v 0.158669 0.730559 -0.936537
v 0.271224 0.690724 0.924378
v 0.271224 0.690725 -0.936537
v 0.374956 0.626037 0.924378
v 0.374956 0.626037 -0.936537
v 0.465878 0.538983 0.924378
v 0.465878 0.538983 -0.936538
v 0.540495 0.432908 0.924377
v 0.540497 0.432907 -0.936538
v 0.595942 0.311887 0.924378
v 0.595942 0.311886 -0.936538
v 0.630085 0.180572 0.924378
v 0.630085 0.180571 -0.936539
v 0.641613 0.044009 0.924378
v 0.641613 0.044008 -0.936538
v 0.630085 -0.092555 0.924377
v 0.630085 -0.092555 -0.936538
v 0.595942 -0.223870 0.924377
v 0.595942 -0.223870 -0.936538
v 0.540496 -0.344891 0.924377
v 0.540496 -0.344890 -0.936539
v 0.465878 -0.450966 0.924377
v 0.465878 -0.450966 -0.936538
v 0.374956 -0.538020 0.924376
v 0.374956 -0.538019 -0.936539
v 0.271224 -0.602707 0.924376
v 0.271224 -0.602706 -0.936539
v 0.158668 -0.642541 0.924377
v 0.158669 -0.642540 -0.936538
v 0.041614 -0.655992 0.924377
v 0.041615 -0.655991 -0.936539
v -0.075440 -0.642541 0.924377
v -0.075439 -0.642541 -0.936538
v -0.187997 -0.602707 0.924376
v -0.187995 -0.602707 -0.936539
v -0.291728 -0.538020 0.924377
v -0.291729 -0.538020 -0.936538
v -0.382651 -0.450966 0.924377
v -0.382649 -0.450967 -0.936538
v -0.457267 -0.344890 0.924377
v -0.457267 -0.344891 -0.936538
v -0.512713 -0.223869 0.924378
v -0.512713 -0.223871 -0.936538
v -0.546858 -0.092554 0.924377
v -0.546858 -0.092556 -0.936538
v -0.558388 0.044009 0.924377
v -0.558388 0.044007 -0.936538
v -0.546858 0.180572 0.924378
v -0.546858 0.180570 -0.936538
v -0.512715 0.311888 0.924378
v -0.512715 0.311885 -0.936537
v -0.457268 0.432909 0.924378
v -0.457271 0.432906 -0.936537
v -0.382649 0.538984 0.924378
v -0.382651 0.538981 -0.936537
v -0.291728 0.626038 0.924378
v -0.291731 0.626036 -0.936537
v -0.187996 0.690724 0.924378
v -0.188000 0.690723 -0.936537
v -0.075439 0.730559 0.924378
v -0.075445 0.730558 -0.936537
vt 0.212978 0.213911
vt 0.207981 0.197436
vt 0.211291 0.196778
vt 0.247261 0.067436
vt 0.258183 0.080745
vt 0.255377 0.082620
vt 0.214666 0.196778
vt 0.260570 0.078358
vt 0.217976 0.197436
vt 0.262445 0.075552
vt 0.221094 0.198728
vt 0.263736 0.072434
vt 0.223900 0.200603
vt 0.264395 0.069124
vt 0.226287 0.202989
vt 0.264395 0.065749
vt 0.228162 0.205795
vt 0.263736 0.062439
vt 0.229453 0.208914
vt 0.262445 0.059321
vt 0.230112 0.212224
vt 0.260569 0.056515
vt 0.230112 0.215599
vt 0.258183 0.054128
vt 0.229453 0.218909
vt 0.255377 0.052253
vt 0.228162 0.222027
vt 0.252259 0.050961
vt 0.226287 0.224833
vt 0.248949 0.050303
vt 0.223900 0.227219
vt 0.245574 0.050303
vt 0.221094 0.229095
vt 0.242264 0.050961
vt 0.217976 0.230386
vt 0.239146 0.052253
vt 0.214666 0.231045
vt 0.236339 0.054128
vt 0.211291 0.231045
vt 0.233953 0.056515
vt 0.207981 0.230386
vt 0.232078 0.059321
vt 0.204863 0.229095
vt 0.230786 0.062439
vt 0.202057 0.227219
vt 0.230128 0.065749
vt 0.199670 0.224833
vt 0.230128 0.069124
vt 0.197795 0.222027
vt 0.230786 0.072434
vt 0.196503 0.218909
vt 0.232078 0.075552
vt 0.195845 0.215599
vt 0.233953 0.078358
vt 0.195845 0.212224
vt 0.236339 0.080745
vt 0.196503 0.208913
vt 0.239145 0.082620
vt 0.197795 0.205795
vt 0.242263 0.083911
vt 0.199670 0.202989
vt 0.245574 0.084570
vt 0.202057 0.200603
vt 0.248949 0.084570
vt 0.204863 0.198728
vt 0.252259 0.083911
vt 0.153817 0.961502
vt 0.156704 0.020428
vt 0.160044 0.020438
vt 0.157157 0.961512
vt 0.163226 0.020448
vt 0.160339 0.961522
vt 0.166127 0.020456
vt 0.163240 0.961530
vt 0.168636 0.020464
vt 0.165749 0.961538
vt 0.141427 0.020464
vt 0.138540 0.961538
vt 0.135931 0.961530
vt 0.138818 0.020456
vt 0.132955 0.961521
vt 0.135841 0.020447
vt 0.129725 0.961511
vt 0.132612 0.020437
vt 0.126367 0.961501
vt 0.129253 0.020427
vt 0.123008 0.961491
vt 0.125894 0.020417
vt 0.119778 0.961481
vt 0.122665 0.020407
vt 0.116802 0.961472
vt 0.119688 0.020398
vt 0.114193 0.961463
vt 0.117079 0.020390
vt 0.195845 0.020464
vt 0.192958 0.961538
vt 0.190255 0.961530
vt 0.193141 0.020456
vt 0.187209 0.961521
vt 0.190096 0.020447
vt 0.183938 0.961510
vt 0.186825 0.020437
vt 0.180568 0.961500
vt 0.183455 0.020426
vt 0.177227 0.961490
vt 0.180114 0.020416
vt 0.174046 0.961480
vt 0.176933 0.020406
vt 0.171145 0.961471
vt 0.174032 0.020397
vt 0.168636 0.961463
vt 0.171523 0.020390
vt 0.111306 0.020390
vt 0.111584 0.961472
vt 0.108697 0.020398
vt 0.108608 0.961481
vt 0.105721 0.020407
vt 0.105378 0.961491
vt 0.102491 0.020417
vt 0.102019 0.961501
vt 0.099132 0.020427
vt 0.098661 0.961511
vt 0.095774 0.020437
vt 0.095431 0.961521
vt 0.092544 0.020447
vt 0.092455 0.961530
vt 0.089568 0.020456
vt 0.089846 0.961538
vt 0.086959 0.020464
vt 0.141427 0.961463
vt 0.144314 0.020390
vt 0.147017 0.020398
vt 0.144130 0.961472
vt 0.150063 0.020407
vt 0.147176 0.961481
vt 0.153334 0.020417
vt 0.150447 0.961491
vt 0.216436 0.172764
vt 0.222480 0.195971
vt 0.218504 0.196778
vt 0.250719 0.108584
vt 0.248651 0.132598
vt 0.244675 0.131790
vt 0.226224 0.194272
vt 0.240932 0.130091
vt 0.229591 0.191746
vt 0.237564 0.127566
vt 0.232453 0.188491
vt 0.234702 0.124311
vt 0.234700 0.184632
vt 0.232456 0.120451
vt 0.236244 0.180316
vt 0.230911 0.116136
vt 0.237028 0.175710
vt 0.230128 0.111530
vt 0.237020 0.170991
vt 0.230136 0.106811
vt 0.236221 0.166341
vt 0.230935 0.102160
vt 0.234661 0.161937
vt 0.232494 0.097756
vt 0.232402 0.157949
vt 0.234753 0.093769
vt 0.229529 0.154530
vt 0.237627 0.090350
vt 0.226152 0.151812
vt 0.241003 0.087632
vt 0.222403 0.149900
vt 0.244753 0.085719
vt 0.218424 0.148866
vt 0.248732 0.084685
vt 0.214368 0.148750
vt 0.252787 0.084570
vt 0.210392 0.149557
vt 0.256763 0.085377
vt 0.206649 0.151256
vt 0.260506 0.087076
vt 0.203281 0.153782
vt 0.263874 0.089602
vt 0.200419 0.157037
vt 0.266736 0.092857
vt 0.198173 0.160896
vt 0.268982 0.096716
vt 0.196628 0.165212
vt 0.270527 0.101032
vt 0.195845 0.169818
vt 0.271310 0.105637
vt 0.195853 0.174537
vt 0.271302 0.110356
vt 0.196652 0.179187
vt 0.270503 0.115007
vt 0.198211 0.183591
vt 0.268944 0.119411
vt 0.200471 0.187579
vt 0.266685 0.123399
vt 0.203344 0.190998
vt 0.263811 0.126817
vt 0.206720 0.193716
vt 0.260435 0.129535
vt 0.210470 0.195628
vt 0.256685 0.131448
vt 0.214449 0.196662
vt 0.252707 0.132482
vt 0.251635 0.148750
vt 0.255665 0.148759
vt 0.255862 0.212768
vt 0.251831 0.212759
vt 0.259541 0.148809
vt 0.259738 0.212819
vt 0.263113 0.148900
vt 0.263310 0.212909
vt 0.266244 0.149026
vt 0.266441 0.213036
vt 0.230128 0.084465
vt 0.226475 0.084476
vt 0.226279 0.020401
vt 0.229931 0.020390
vt 0.222308 0.084489
vt 0.222112 0.020414
vt 0.217787 0.084503
vt 0.217590 0.020427
vt 0.213085 0.084518
vt 0.212888 0.020442
vt 0.208383 0.084532
vt 0.208186 0.020456
vt 0.203861 0.084546
vt 0.203664 0.020470
vt 0.199694 0.084559
vt 0.199497 0.020483
vt 0.196042 0.084570
vt 0.195845 0.020494
vt 0.266441 0.148840
vt 0.269572 0.148966
vt 0.269768 0.212976
vt 0.266637 0.212849
vt 0.273144 0.149057
vt 0.273340 0.213066
vt 0.277020 0.149107
vt 0.277216 0.213117
vt 0.281050 0.149116
vt 0.281246 0.213125
vt 0.285080 0.149082
vt 0.285277 0.213092
vt 0.288956 0.149008
vt 0.289152 0.213018
vt 0.292527 0.148896
vt 0.292724 0.212905
vt 0.295657 0.148750
vt 0.295854 0.212759
vt 0.230128 0.148645
vt 0.226475 0.148657
vt 0.226279 0.084581
vt 0.229931 0.084570
vt 0.222308 0.148670
vt 0.222112 0.084594
vt 0.217787 0.148683
vt 0.217590 0.084608
vt 0.213085 0.148698
vt 0.212888 0.084622
vt 0.208382 0.148712
vt 0.208186 0.084637
vt 0.203861 0.148726
vt 0.203664 0.084650
vt 0.199694 0.148739
vt 0.199497 0.084663
vt 0.196041 0.148750
vt 0.195845 0.084674
vt 0.237028 0.149116
vt 0.240158 0.148970
vt 0.240354 0.212979
vt 0.237224 0.213125
vt 0.243729 0.148858
vt 0.243925 0.212867
vt 0.247605 0.148784
vt 0.247801 0.212793
vn 1.000000 0.000000 0.000000
vn 0.685690 -0.727866 0.000000
vn 0.685690 -0.713889 -0.141972
vn -1.000000 0.000000 0.000000
vn -0.685690 -0.713889 -0.142003
vn -0.685690 -0.727866 0.000000
vn 0.685690 -0.672475 -0.278542
vn -0.685690 -0.672475 -0.278542
vn 0.685690 -0.605182 -0.404370
vn -0.685690 -0.605182 -0.404370
vn 0.685690 -0.514664 -0.514695
vn -0.685690 -0.514664 -0.514695
vn 0.685690 -0.404370 -0.605213
vn -0.685690 -0.404370 -0.605213
vn 0.685690 -0.278542 -0.672475
vn -0.685690 -0.278542 -0.672475
vn 0.685690 -0.141972 -0.713889
vn -0.685690 -0.142003 -0.713889
vn 0.685690 0.000000 -0.727866
vn -0.685690 0.000000 -0.727866
vn 0.685690 0.141972 -0.713889
vn -0.685690 0.142003 -0.713889
vn 0.685690 0.278542 -0.672475
vn -0.685690 0.278542 -0.672475
vn 0.685690 0.404370 -0.605213
vn -0.685690 0.404370 -0.605213
vn 0.685690 0.514664 -0.514664
vn -0.685690 0.514695 -0.514664
vn 0.685690 0.605213 -0.404370
vn -0.685690 0.605182 -0.404370
vn 0.685690 0.672475 -0.278542
vn -0.685690 0.672475 -0.278542
vn 0.685690 0.713889 -0.142003
vn -0.685690 0.713889 -0.142003
vn 0.685690 0.727866 0.000000
vn -0.685690 0.727866 0.000000
vn 0.685690 0.713889 0.142003
vn -0.685690 0.713889 0.141972
vn 0.685690 0.672475 0.278542
vn -0.685690 0.672475 0.278542
vn 0.685690 0.605213 0.404370
vn -0.685690 0.605213 0.404370
vn 0.685690 0.514695 0.514695
vn -0.685690 0.514695 0.514695
vn 0.685690 0.404370 0.605182
vn -0.685690 0.404370 0.605182
vn 0.685690 0.278542 0.672475
vn -0.685690 0.278542 0.672475
vn 0.685690 0.141972 0.713889
vn -0.685690 0.142003 0.713889
vn 0.685690 0.000000 0.727866
vn -0.685690 0.000000 0.727866
vn 0.685690 -0.142003 0.713889
vn -0.685690 -0.141972 0.713889
vn 0.685690 -0.278542 0.672475
vn -0.685690 -0.278542 0.672475
vn 0.685690 -0.404370 0.605213
vn -0.685690 -0.404370 0.605213
vn 0.685690 -0.514664 0.514695
vn -0.685690 -0.514664 0.514664
vn 0.685690 -0.605182 0.404370
vn -0.685690 -0.605213 0.404370
vn 0.685690 -0.672475 0.278512
vn -0.685690 -0.672475 0.278542
vn 0.685690 -0.713889 0.141972
vn -0.685690 -0.713889 0.142003
vn 0.000000 0.000000 1.000000
vn 0.164647 0.711966 0.682607
vn 0.000000 0.731071 0.682272
vn 0.000000 0.000000 -1.000000
vn 0.000000 0.731071 -0.682272
vn 0.164647 0.711966 -0.682607
vn 0.316752 0.657643 0.683462
vn 0.316752 0.657643 -0.683462
vn 0.447218 0.575488 0.684652
vn 0.447218 0.575488 -0.684652
vn 0.551775 0.474349 0.685934
vn 0.551775 0.474349 -0.685934
vn 0.630055 0.361858 0.687033
vn 0.630055 0.361858 -0.687033
vn 0.683737 0.243385 0.687918
vn 0.683737 0.243385 -0.687918
vn 0.714866 0.122196 0.688467
vn 0.714866 0.122196 -0.688467
vn 0.725059 0.000000 0.688650
vn 0.725089 0.000000 -0.688650
vn 0.714866 -0.122196 0.688467
vn 0.714866 -0.122196 -0.688467
vn 0.683737 -0.243385 0.687918
vn 0.683737 -0.243385 -0.687918
vn 0.630055 -0.361858 0.687033
vn 0.630055 -0.361858 -0.687063
vn 0.551775 -0.474349 0.685934
vn 0.551775 -0.474349 -0.685903
vn 0.447218 -0.575488 0.684652
vn 0.447218 -0.575488 -0.684652
vn 0.316752 -0.657643 0.683462
vn 0.316752 -0.657643 -0.683462
vn 0.164647 -0.711966 0.682607
vn 0.164647 -0.711966 -0.682607
vn 0.000000 -0.731071 0.682272
vn 0.000000 -0.731071 -0.682272
vn -0.164647 -0.711966 0.682607
vn -0.164647 -0.711966 -0.682607
vn -0.316752 -0.657643 0.683462
vn -0.316752 -0.657643 -0.683462
vn -0.447218 -0.575488 0.684652
vn -0.447218 -0.575488 -0.684652
vn -0.551775 -0.474349 0.685903
vn -0.551775 -0.474349 -0.685934
vn -0.630055 -0.361858 0.687063
vn -0.630055 -0.361858 -0.687063
vn -0.683737 -0.243385 0.687918
vn -0.683737 -0.243385 -0.687918
vn -0.714866 -0.122196 0.688467
vn -0.714866 -0.122196 -0.688467
vn -0.725089 0.000000 0.688650
vn -0.725089 0.000000 -0.688650
vn -0.714866 0.122196 0.688467
vn -0.714866 0.122196 -0.688467
vn -0.683737 0.243385 0.687918
vn -0.683737 0.243385 -0.687918
vn -0.630055 0.361858 0.687033
vn -0.630055 0.361858 -0.687033
vn -0.551775 0.474349 0.685934
vn -0.551775 0.474349 -0.685934
vn -0.447218 0.575488 0.684652
vn -0.447218 0.575488 -0.684652
vn -0.316752 0.657643 0.683462
vn -0.316752 0.657643 -0.683462
vn -0.164647 0.711966 0.682607
vn -0.164647 0.711966 -0.682607
usemtl Material.004_stainless-steel.jpg
s 1
f 1/1/1 2/2/2 3/3/3
f 4/4/4 5/5/5 6/6/6
f 1/1/1 3/3/3 7/7/7
f 4/4/4 8/8/8 5/5/5
f 1/1/1 7/7/7 9/9/9
f 4/4/4 10/10/10 8/8/8
f 1/1/1 9/9/9 11/11/11
f 4/4/4 12/12/12 10/10/10
f 1/1/1 11/11/11 13/13/13
f 4/4/4 14/14/14 12/12/12
f 1/1/1 13/13/13 15/15/15
f 4/4/4 16/16/16 14/14/14
f 1/1/1 15/15/15 17/17/17
f 4/4/4 18/18/18 16/16/16
f 1/1/1 17/17/17 19/19/19
f 4/4/4 20/20/20 18/18/18
f 1/1/1 19/19/19 21/21/21
f 4/4/4 22/22/22 20/20/20
f 1/1/1 21/21/21 23/23/23
f 4/4/4 24/24/24 22/22/22
f 1/1/1 23/23/23 25/25/25
f 4/4/4 26/26/26 24/24/24
f 1/1/1 25/25/25 27/27/27
f 4/4/4 28/28/28 26/26/26
f 1/1/1 27/27/27 29/29/29
f 4/4/4 30/30/30 28/28/28
f 1/1/1 29/29/29 31/31/31
f 4/4/4 32/32/32 30/30/30
f 1/1/1 31/31/31 33/33/33
f 4/4/4 34/34/34 32/32/32
f 1/1/1 33/33/33 35/35/35
f 4/4/4 36/36/36 34/34/34
f 1/1/1 35/35/35 37/37/37
f 4/4/4 38/38/38 36/36/36
f 1/1/1 37/37/37 39/39/39
f 4/4/4 40/40/40 38/38/38
f 1/1/1 39/39/39 41/41/41
f 4/4/4 42/42/42 40/40/40
f 1/1/1 41/41/41 43/43/43
f 4/4/4 44/44/44 42/42/42
f 1/1/1 43/43/43 45/45/45
f 4/4/4 46/46/46 44/44/44
f 1/1/1 45/45/45 47/47/47
f 4/4/4 48/48/48 46/46/46
f 1/1/1 47/47/47 49/49/49
f 4/4/4 50/50/50 48/48/48
f 1/1/1 49/49/49 51/51/51
f 4/4/4 52/52/52 50/50/50
f 1/1/1 51/51/51 53/53/53
f 4/4/4 54/54/54 52/52/52
f 1/1/1 53/53/53 55/55/55
f 4/4/4 56/56/56 54/54/54
f 1/1/1 55/55/55 57/57/57
f 4/4/4 58/58/58 56/56/56
f 1/1/1 57/57/57 59/59/59
f 4/4/4 60/60/60 58/58/58
f 1/1/1 59/59/59 61/61/61
f 4/4/4 62/62/62 60/60/60
f 1/1/1 61/61/61 63/63/63
f 4/4/4 64/64/64 62/62/62
f 1/1/1 63/63/63 65/65/65
f 4/4/4 66/66/66 64/64/64
f 2/2/2 1/1/1 65/65/65
f 4/4/4 6/6/6 66/66/66
f 2/67/2 6/68/6 5/69/5
f 2/67/2 5/69/5 3/70/3
f 3/70/3 5/69/5 8/71/8
f 3/70/3 8/71/8 7/72/7
f 7/72/7 8/71/8 10/73/10
f 7/72/7 10/73/10 9/74/9
f 9/74/9 10/73/10 12/75/12
f 9/74/9 12/75/12 11/76/11
f 11/77/11 12/78/12 14/79/14
f 11/77/11 14/79/14 13/80/13
f 13/80/13 14/79/14 16/81/16
f 13/80/13 16/81/16 15/82/15
f 15/82/15 16/81/16 18/83/18
f 15/82/15 18/83/18 17/84/17
f 17/84/17 18/83/18 20/85/20
f 17/84/17 20/85/20 19/86/19
f 19/86/19 20/85/20 22/87/22
f 19/86/19 22/87/22 21/88/21
f 21/88/21 22/87/22 24/89/24
f 21/88/21 24/89/24 23/90/23
f 23/90/23 24/89/24 26/91/26
f 23/90/23 26/91/26 25/92/25
f 25/92/25 26/91/26 28/93/28
f 25/92/25 28/93/28 27/94/27
f 27/95/27 28/96/28 30/97/30
f 27/95/27 30/97/30 29/98/29
f 29/98/29 30/97/30 32/99/32
f 29/98/29 32/99/32 31/100/31
f 31/100/31 32/99/32 34/101/34
f 31/100/31 34/101/34 33/102/33
f 33/102/33 34/101/34 36/103/36
f 33/102/33 36/103/36 35/104/35
f 35/104/35 36/103/36 38/105/38
f 35/104/35 38/105/38 37/106/37
f 37/106/37 38/105/38 40/107/40
f 37/106/37 40/107/40 39/108/39
f 39/108/39 40/107/40 42/109/42
f 39/108/39 42/109/42 41/110/41
f 41/110/41 42/109/42 44/111/44
f 41/110/41 44/111/44 43/112/43
f 43/113/43 44/93/44 46/114/46
f 43/113/43 46/114/46 45/115/45
f 45/115/45 46/114/46 48/116/48
f 45/115/45 48/116/48 47/117/47
f 47/117/47 48/116/48 50/118/50
f 47/117/47 50/118/50 49/119/49
f 49/119/49 50/118/50 52/120/52
f 49/119/49 52/120/52 51/121/51
f 51/121/51 52/120/52 54/122/54
f 51/121/51 54/122/54 53/123/53
f 53/123/53 54/122/54 56/124/56
f 53/123/53 56/124/56 55/125/55
f 55/125/55 56/124/56 58/126/58
f 55/125/55 58/126/58 57/127/57
f 57/127/57 58/126/58 60/128/60
f 57/127/57 60/128/60 59/129/59
f 59/130/59 60/131/60 62/132/62
f 59/130/59 62/132/62 61/133/61
f 61/133/61 62/132/62 64/134/64
f 61/133/61 64/134/64 63/135/63
f 63/135/63 64/134/64 66/136/66
f 63/135/63 66/136/66 65/137/65
f 6/68/6 2/67/2 65/137/65
f 6/68/6 65/137/65 66/136/66
f 67/138/67 68/139/68 69/140/69
f 70/141/70 71/142/71 72/143/72
f 67/138/67 73/144/73 68/139/68
f 70/141/70 72/143/72 74/145/74
f 67/138/67 75/146/75 73/144/73
f 70/141/70 74/145/74 76/147/76
f 67/138/67 77/148/77 75/146/75
f 70/141/70 76/147/76 78/149/78
f 67/138/67 79/150/79 77/148/77
f 70/141/70 78/149/78 80/151/80
f 67/138/67 81/152/81 79/150/79
f 70/141/70 80/151/80 82/153/82
f 67/138/67 83/154/83 81/152/81
f 70/141/70 82/153/82 84/155/84
f 67/138/67 85/156/85 83/154/83
f 70/141/70 84/155/84 86/157/86
f 67/138/67 87/158/87 85/156/85
f 70/141/70 86/157/86 88/159/88
f 67/138/67 89/160/89 87/158/87
f 70/141/70 88/159/88 90/161/90
f 67/138/67 91/162/91 89/160/89
f 70/141/70 90/161/90 92/163/92
f 67/138/67 93/164/93 91/162/91
f 70/141/70 92/163/92 94/165/94
f 67/138/67 95/166/95 93/164/93
f 70/141/70 94/165/94 96/167/96
f 67/138/67 97/168/97 95/166/95
f 70/141/70 96/167/96 98/169/98
f 67/138/67 99/170/99 97/168/97
f 70/141/70 98/169/98 100/171/100
f 67/138/67 101/172/101 99/170/99
f 70/141/70 100/171/100 102/173/102
f 67/138/67 103/174/103 101/172/101
f 70/141/70 102/173/102 104/175/104
f 67/138/67 105/176/105 103/174/103
f 70/141/70 104/175/104 106/177/106
f 67/138/67 107/178/107 105/176/105
f 70/141/70 106/177/106 108/179/108
f 67/138/67 109/180/109 107/178/107
f 70/141/70 108/179/108 110/181/110
f 67/138/67 111/182/111 109/180/109
f 70/141/70 110/181/110 112/183/112
f 67/138/67 113/184/113 111/182/111
f 70/141/70 112/183/112 114/185/114
f 67/138/67 115/186/115 113/184/113
f 70/141/70 114/185/114 116/187/116
f 67/138/67 117/188/117 115/186/115
f 70/141/70 116/187/116 118/189/118
f 67/138/67 119/190/119 117/188/117
f 70/141/70 118/189/118 120/191/120
f 67/138/67 121/192/121 119/190/119
f 70/141/70 120/191/120 122/193/122
f 67/138/67 123/194/123 121/192/121
f 70/141/70 122/193/122 124/195/124
f 67/138/67 125/196/125 123/194/123
f 70/141/70 124/195/124 126/197/126
f 67/138/67 127/198/127 125/196/125
f 70/141/70 126/197/126 128/199/128
f 67/138/67 129/200/129 127/198/127
f 70/141/70 128/199/128 130/201/130
f 67/138/67 131/202/131 129/200/129
f 70/141/70 130/201/130 132/203/132
f 67/138/67 69/140/69 131/202/131
f 70/141/70 132/203/132 71/142/71
f 69/204/69 68/205/68 72/206/72
f 69/204/69 72/206/72 71/207/71
f 68/205/68 73/208/73 74/209/74
f 68/205/68 74/209/74 72/206/72
f 73/208/73 75/210/75 76/211/76
f 73/208/73 76/211/76 74/209/74
f 75/210/75 77/212/77 78/213/78
f 75/210/75 78/213/78 76/211/76
f 77/214/77 79/215/79 80/216/80
f 77/214/77 80/216/80 78/217/78
f 79/215/79 81/218/81 82/219/82
f 79/215/79 82/219/82 80/216/80
f 81/218/81 83/220/83 84/221/84
f 81/218/81 84/221/84 82/219/82
f 83/220/83 85/222/85 86/223/86
f 83/220/83 86/223/86 84/221/84
f 85/222/85 87/224/87 88/225/88
f 85/222/85 88/225/88 86/223/86
f 87/224/87 89/226/89 90/227/90
f 87/224/87 90/227/90 88/225/88
f 89/226/89 91/228/91 92/229/92
f 89/226/89 92/229/92 90/227/90
f 91/228/91 93/230/93 94/231/94
f 91/228/91 94/231/94 92/229/92
f 93/232/93 95/233/95 96/234/96
f 93/232/93 96/234/96 94/235/94
f 95/233/95 97/236/97 98/237/98
f 95/233/95 98/237/98 96/234/96
f 97/236/97 99/238/99 100/239/100
f 97/236/97 100/239/100 98/237/98
f 99/238/99 101/240/101 102/241/102
f 99/238/99 102/241/102 100/239/100
f 101/240/101 103/242/103 104/243/104
f 101/240/101 104/243/104 102/241/102
f 103/242/103 105/244/105 106/245/106
f 103/242/103 106/245/106 104/243/104
f 105/244/105 107/246/107 108/247/108
f 105/244/105 108/247/108 106/245/106
f 107/246/107 109/248/109 110/249/110
f 107/246/107 110/249/110 108/247/108
f 109/250/109 111/251/111 112/252/112
f 109/250/109 112/252/112 110/253/110
f 111/251/111 113/254/113 114/255/114
f 111/251/111 114/255/114 112/252/112
f 113/254/113 115/256/115 116/257/116
f 113/254/113 116/257/116 114/255/114
f 115/256/115 117/258/117 118/259/118
f 115/256/115 118/259/118 116/257/116
f 117/258/117 119/260/119 120/261/120
f 117/258/117 120/261/120 118/259/118
f 119/260/119 121/262/121 122/263/122
f 119/260/119 122/263/122 120/261/120
f 121/262/121 123/264/123 124/265/124
f 121/262/121 124/265/124 122/263/122
f 123/264/123 125/266/125 126/267/126
f 123/264/123 126/267/126 124/265/124
f 125/268/125 127/269/127 128/270/128
f 125/268/125 128/270/128 126/271/126
f 127/269/127 129/272/129 130/273/130
f 127/269/127 130/273/130 128/270/128
f 129/272/129 131/274/131 132/275/132
f 129/272/129 132/275/132 130/273/130
f 131/274/131 69/204/69 71/207/71
f 131/274/131 71/207/71 132/275/132
