# Blender v2.62 (sub 0) OBJ File: ''
# www.blender.org
mtllib sterling_E2.mtl
o Mesh.001_Cylinder.004
v -14.482352 -19.427994 -0.012932
v -14.881669 -19.127087 -0.012932
v -14.873998 -19.132868 -0.110477
v 0.274611 0.155118 -0.012931
v -0.117033 0.450244 -0.110476
v -0.124705 0.456025 -0.012931
v -14.851274 -19.149990 -0.204274
v -0.094309 0.433121 -0.204273
v -14.814374 -19.177797 -0.290717
v -0.057408 0.405314 -0.290716
v -14.764712 -19.215219 -0.366486
v -0.007748 0.367891 -0.366485
v -14.704202 -19.260818 -0.428667
v 0.052763 0.322293 -0.428665
v -14.635163 -19.312841 -0.474872
v 0.121800 0.270270 -0.474870
v -14.560256 -19.369289 -0.503325
v 0.196710 0.213821 -0.503323
v -14.482350 -19.427992 -0.512932
v 0.274613 0.155118 -0.512931
v -14.404449 -19.486698 -0.503325
v 0.352515 0.096414 -0.503323
v -14.329537 -19.543144 -0.474872
v 0.427424 0.039965 -0.474870
v -14.260503 -19.595169 -0.428667
v 0.496461 -0.012057 -0.428665
v -14.199992 -19.640768 -0.366486
v 0.556972 -0.057656 -0.366483
v -14.150331 -19.678190 -0.290717
v 0.606632 -0.095078 -0.290716
v -14.113431 -19.705996 -0.204274
v 0.643532 -0.122884 -0.204272
v -14.090707 -19.723120 -0.110477
v 0.666257 -0.140008 -0.110476
v -14.083035 -19.728901 -0.012932
v 0.673930 -0.145790 -0.012931
v -14.090707 -19.723120 0.084614
v 0.666257 -0.140008 0.084614
v -14.113431 -19.705996 0.178410
v 0.643532 -0.122884 0.178411
v -14.150331 -19.678188 0.264854
v 0.606633 -0.095078 0.264854
v -14.199990 -19.640766 0.340622
v 0.556973 -0.057656 0.340622
v -14.260503 -19.595169 0.402803
v 0.496463 -0.012058 0.402803
v -14.329541 -19.543146 0.449008
v 0.427425 0.039966 0.449009
v -14.404450 -19.486698 0.477461
v 0.352515 0.096414 0.477462
v -14.482354 -19.427994 0.487068
v 0.274614 0.155116 0.487070
v -14.560256 -19.369289 0.477461
v 0.196710 0.213820 0.477463
v -14.635167 -19.312840 0.449007
v 0.121801 0.270269 0.449011
v -14.704202 -19.260818 0.402803
v 0.052764 0.322293 0.402806
v -14.764712 -19.215219 0.340621
v -0.007746 0.367891 0.340625
v -14.814374 -19.177797 0.264852
v -0.057407 0.405313 0.264857
v -14.851274 -19.149990 0.178409
v -0.094309 0.433120 0.178414
v -14.873998 -19.132868 0.084613
v -0.117033 0.450244 0.084618
v 0.059528 -0.090084 0.924378
v 0.537385 -0.596745 0.924378
v 0.618573 -0.511355 0.924379
v 0.059529 -0.090085 -0.936538
v 0.618573 -0.511357 -0.936537
v 0.537386 -0.596745 -0.936537
v 0.437834 -0.662663 0.924378
v 0.437834 -0.662664 -0.936537
v 0.323745 -0.706577 0.924378
v 0.323746 -0.706578 -0.936537
v 0.199502 -0.726800 0.924378
v 0.199502 -0.726802 -0.936538
v 0.069882 -0.722554 0.924377
v 0.069880 -0.722556 -0.936538
v -0.060138 -0.694004 0.924378
v -0.060139 -0.694004 -0.936538
v -0.185559 -0.642244 0.924378
v -0.185560 -0.642244 -0.936539
v -0.301561 -0.569264 0.924378
v -0.301561 -0.569264 -0.936538
v -0.403687 -0.477872 0.924377
v -0.403688 -0.477872 -0.936538
v -0.488012 -0.371577 0.924377
v -0.488012 -0.371577 -0.936539
v -0.551295 -0.254463 0.924377
v -0.551295 -0.254464 -0.936539
v -0.591105 -0.131034 0.924377
v -0.591104 -0.131034 -0.936538
v -0.605912 -0.006028 0.924376
v -0.605910 -0.006030 -0.936539
v -0.595145 0.115745 0.924376
v -0.595145 0.115744 -0.936539
v -0.559220 0.229609 0.924377
v -0.559219 0.229606 -0.936538
v -0.499516 0.331187 0.924377
v -0.499516 0.331183 -0.936539
v -0.418330 0.416575 0.924377
v -0.418330 0.416574 -0.936538
v -0.318778 0.482494 0.924376
v -0.318779 0.482491 -0.936539
v -0.204690 0.526408 0.924377
v -0.204690 0.526408 -0.936538
v -0.080447 0.546632 0.924377
v -0.080449 0.546631 -0.936538
v 0.049174 0.542384 0.924377
v 0.049173 0.542384 -0.936538
v 0.179194 0.513833 0.924378
v 0.179193 0.513833 -0.936538
v 0.304616 0.462075 0.924377
v 0.304614 0.462076 -0.936538
v 0.420619 0.389097 0.924377
v 0.420617 0.389098 -0.936538
v 0.522744 0.297704 0.924378
v 0.522741 0.297705 -0.936538
v 0.607069 0.191408 0.924378
v 0.607067 0.191409 -0.936537
v 0.670352 0.074294 0.924378
v 0.670351 0.074297 -0.936537
v 0.710161 -0.049137 0.924378
v 0.710160 -0.049134 -0.936537
v 0.724967 -0.174140 0.924378
v 0.724967 -0.174138 -0.936537
v 0.714201 -0.295915 0.924378
v 0.714203 -0.295911 -0.936537
v 0.678275 -0.409779 0.924378
v 0.678279 -0.409775 -0.936537
vt 0.392707 0.100002
vt 0.387678 0.116579
vt 0.384541 0.115280
vt 0.427187 0.100002
vt 0.438177 0.113393
vt 0.435354 0.115280
vt 0.381717 0.113393
vt 0.440579 0.110992
vt 0.379315 0.110992
vt 0.442465 0.108168
vt 0.377429 0.108168
vt 0.443765 0.105031
vt 0.376129 0.105031
vt 0.444427 0.101700
vt 0.375467 0.101700
vt 0.444427 0.098304
vt 0.375467 0.098304
vt 0.443765 0.094973
vt 0.376129 0.094973
vt 0.442465 0.091835
vt 0.377429 0.091835
vt 0.440579 0.089012
vt 0.379315 0.089012
vt 0.438177 0.086610
vt 0.381717 0.086610
vt 0.435354 0.084724
vt 0.384541 0.084724
vt 0.432216 0.083424
vt 0.387678 0.083424
vt 0.428885 0.082762
vt 0.391009 0.082762
vt 0.425489 0.082762
vt 0.394405 0.082761
vt 0.422158 0.083424
vt 0.397736 0.083424
vt 0.419021 0.084724
vt 0.400873 0.084724
vt 0.416197 0.086610
vt 0.403697 0.086610
vt 0.413796 0.089012
vt 0.406098 0.089012
vt 0.411909 0.091835
vt 0.407985 0.091835
vt 0.410610 0.094973
vt 0.409285 0.094973
vt 0.409947 0.098304
vt 0.409947 0.101700
vt 0.410610 0.105031
vt 0.409284 0.105031
vt 0.411909 0.108168
vt 0.407985 0.108168
vt 0.413796 0.110992
vt 0.406098 0.110992
vt 0.416197 0.113393
vt 0.403697 0.113393
vt 0.419021 0.115280
vt 0.400873 0.115280
vt 0.422158 0.116579
vt 0.397736 0.116579
vt 0.425489 0.117242
vt 0.394405 0.117242
vt 0.428885 0.117242
vt 0.391009 0.117242
vt 0.432216 0.116580
vt 0.250334 0.932371
vt 0.247728 0.082798
vt 0.251089 0.082788
vt 0.253695 0.932361
vt 0.254290 0.082778
vt 0.256897 0.932351
vt 0.257210 0.082769
vt 0.259816 0.932342
vt 0.259734 0.082761
vt 0.262340 0.932334
vt 0.289420 0.932337
vt 0.290696 0.082761
vt 0.293321 0.082765
vt 0.292045 0.932341
vt 0.296317 0.082770
vt 0.295041 0.932346
vt 0.299566 0.082775
vt 0.298290 0.932350
vt 0.302946 0.082780
vt 0.301670 0.932355
vt 0.306326 0.082785
vt 0.305050 0.932360
vt 0.309575 0.082790
vt 0.308299 0.932365
vt 0.312570 0.082794
vt 0.311294 0.932370
vt 0.315196 0.082798
vt 0.313920 0.932374
vt 0.286814 0.082761
vt 0.289420 0.932334
vt 0.286700 0.932342
vt 0.284094 0.082770
vt 0.283635 0.932352
vt 0.281029 0.082779
vt 0.280344 0.932362
vt 0.277738 0.082789
vt 0.276953 0.932372
vt 0.274346 0.082800
vt 0.273592 0.932383
vt 0.270985 0.082810
vt 0.270390 0.932392
vt 0.267784 0.082820
vt 0.267471 0.932401
vt 0.264865 0.082829
vt 0.264947 0.932409
vt 0.262340 0.082837
vt 0.339695 0.082761
vt 0.340970 0.932337
vt 0.338345 0.932341
vt 0.337070 0.082765
vt 0.335350 0.932345
vt 0.334075 0.082770
vt 0.332100 0.932350
vt 0.330825 0.082775
vt 0.328720 0.932355
vt 0.327445 0.082780
vt 0.325341 0.932360
vt 0.324066 0.082785
vt 0.322091 0.932365
vt 0.320816 0.082790
vt 0.319096 0.932370
vt 0.317821 0.082794
vt 0.316471 0.932374
vt 0.237866 0.932409
vt 0.235260 0.082836
vt 0.237980 0.082828
vt 0.240587 0.932401
vt 0.241045 0.082819
vt 0.243652 0.932391
vt 0.244336 0.082809
vt 0.246943 0.932381
vt 0.361685 0.236089
vt 0.367730 0.259450
vt 0.363728 0.260256
vt 0.396182 0.171509
vt 0.398225 0.147342
vt 0.402227 0.148148
vt 0.371500 0.257747
vt 0.405996 0.149852
vt 0.374892 0.255211
vt 0.409389 0.152388
vt 0.377777 0.251940
vt 0.412274 0.155659
vt 0.380044 0.248060
vt 0.414540 0.159539
vt 0.381605 0.243720
vt 0.416101 0.163879
vt 0.382400 0.239087
vt 0.416897 0.168512
vt 0.382399 0.234338
vt 0.416896 0.173260
vt 0.381603 0.229657
vt 0.416099 0.177941
vt 0.380041 0.225223
vt 0.414537 0.182375
vt 0.377773 0.221207
vt 0.412270 0.186391
vt 0.374888 0.217763
vt 0.409384 0.189836
vt 0.371495 0.215022
vt 0.405991 0.192576
vt 0.367725 0.213092
vt 0.402221 0.194506
vt 0.363723 0.212045
vt 0.398219 0.195553
vt 0.359642 0.211923
vt 0.394139 0.195676
vt 0.355640 0.212729
vt 0.390137 0.194870
vt 0.351870 0.214432
vt 0.386367 0.193166
vt 0.348478 0.216968
vt 0.382975 0.190630
vt 0.345593 0.220239
vt 0.380090 0.187359
vt 0.343327 0.224119
vt 0.377823 0.183479
vt 0.341766 0.228459
vt 0.376262 0.179139
vt 0.340970 0.233092
vt 0.375467 0.174506
vt 0.340970 0.237841
vt 0.375467 0.169758
vt 0.341767 0.242522
vt 0.376264 0.165077
vt 0.343329 0.246956
vt 0.377826 0.160643
vt 0.345597 0.250972
vt 0.380093 0.156627
vt 0.348482 0.254416
vt 0.382979 0.153182
vt 0.351875 0.257156
vt 0.386372 0.150442
vt 0.355645 0.259087
vt 0.390142 0.148512
vt 0.359648 0.260134
vt 0.394144 0.147465
vt 0.397298 0.276699
vt 0.393243 0.276691
vt 0.393045 0.212282
vt 0.397101 0.212291
vt 0.389343 0.276640
vt 0.389145 0.212231
vt 0.385748 0.276549
vt 0.385551 0.212140
vt 0.382598 0.276421
vt 0.382400 0.212013
vt 0.375467 0.211817
vt 0.371791 0.211829
vt 0.371594 0.147353
vt 0.375269 0.147342
vt 0.367598 0.211842
vt 0.367401 0.147366
vt 0.363049 0.211855
vt 0.362851 0.147380
vt 0.358317 0.211870
vt 0.358119 0.147395
vt 0.353586 0.211884
vt 0.353388 0.147409
vt 0.349036 0.211898
vt 0.348838 0.147423
vt 0.344843 0.211911
vt 0.344645 0.147436
vt 0.341168 0.211923
vt 0.340970 0.147447
vt 0.441593 0.276609
vt 0.438443 0.276482
vt 0.438245 0.212073
vt 0.441396 0.212200
vt 0.434848 0.276391
vt 0.434651 0.211982
vt 0.430948 0.276340
vt 0.430751 0.211931
vt 0.426893 0.276331
vt 0.426695 0.211923
vt 0.422837 0.276365
vt 0.422640 0.211956
vt 0.418938 0.276440
vt 0.418740 0.212031
vt 0.415344 0.276552
vt 0.415146 0.212144
vt 0.412194 0.276699
vt 0.411997 0.212291
vt 0.375467 0.147237
vt 0.371791 0.147248
vt 0.371594 0.082773
vt 0.375269 0.082761
vt 0.367598 0.147261
vt 0.367401 0.082786
vt 0.363049 0.147275
vt 0.362851 0.082800
vt 0.358317 0.147289
vt 0.358119 0.082814
vt 0.353586 0.147304
vt 0.353388 0.082829
vt 0.349036 0.147318
vt 0.348838 0.082843
vt 0.344843 0.147331
vt 0.344645 0.082855
vt 0.341168 0.147342
vt 0.340970 0.082867
vt 0.411997 0.276331
vt 0.408847 0.276478
vt 0.408649 0.212069
vt 0.411799 0.211923
vt 0.405253 0.276591
vt 0.405056 0.212182
vt 0.401354 0.276666
vt 0.401156 0.212257
vn -0.601794 -0.798608 0.000000
vn -0.993957 -0.109561 0.000000
vn -0.982788 -0.117985 -0.142003
vn 0.601794 0.798608 0.000000
vn -0.157476 0.977233 -0.141972
vn -0.168645 0.985656 0.000000
vn -0.949705 -0.142888 -0.278542
vn -0.124393 0.952330 -0.278542
vn -0.895993 -0.183386 -0.404370
vn -0.070650 0.911832 -0.404370
vn -0.823695 -0.237861 -0.514695
vn 0.001587 0.857356 -0.514695
vn -0.735618 -0.304239 -0.605213
vn 0.089694 0.790979 -0.605213
vn -0.635121 -0.379955 -0.672475
vn 0.190191 0.715232 -0.672475
vn -0.526048 -0.462142 -0.713889
vn 0.299234 0.633076 -0.713889
vn -0.412641 -0.547594 -0.727866
vn 0.412641 0.547594 -0.727866
vn -0.299234 -0.633076 -0.713889
vn 0.526048 0.462142 -0.713889
vn -0.190161 -0.715232 -0.672475
vn 0.635121 0.379955 -0.672475
vn -0.089694 -0.790979 -0.605213
vn 0.735618 0.304239 -0.605213
vn -0.001587 -0.857356 -0.514695
vn 0.823695 0.237861 -0.514664
vn 0.070681 -0.911832 -0.404370
vn 0.895993 0.183386 -0.404370
vn 0.124393 -0.952330 -0.278542
vn 0.949705 0.142888 -0.278542
vn 0.157476 -0.977233 -0.141972
vn 0.982788 0.117954 -0.142003
vn 0.168645 -0.985656 0.000000
vn 0.993957 0.109561 0.000000
vn 0.157476 -0.977233 0.141972
vn 0.982788 0.117954 0.142003
vn 0.124393 -0.952330 0.278542
vn 0.949705 0.142888 0.278542
vn 0.070681 -0.911832 0.404370
vn 0.895993 0.183386 0.404370
vn -0.001587 -0.857356 0.514695
vn 0.823695 0.237861 0.514664
vn -0.089663 -0.790979 0.605213
vn 0.735618 0.304239 0.605213
vn -0.190191 -0.715232 0.672475
vn 0.635121 0.379955 0.672475
vn -0.299234 -0.633076 0.713889
vn 0.526048 0.462142 0.713889
vn -0.412641 -0.547594 0.727866
vn 0.412641 0.547594 0.727866
vn -0.526048 -0.462142 0.713889
vn 0.299234 0.633045 0.713889
vn -0.635121 -0.379955 0.672475
vn 0.190191 0.715232 0.672475
vn -0.735618 -0.304239 0.605182
vn 0.089694 0.790979 0.605213
vn -0.823695 -0.237861 0.514695
vn 0.001587 0.857356 0.514695
vn -0.895993 -0.183386 0.404370
vn -0.070681 0.911832 0.404370
vn -0.949705 -0.142888 0.278542
vn -0.124393 0.952300 0.278542
vn -0.982788 -0.117954 0.142003
vn -0.157476 0.977233 0.141972
vn 0.000000 0.000000 1.000000
vn 0.469497 -0.559984 0.682607
vn 0.583850 -0.439955 0.682272
vn 0.000000 0.000000 -1.000000
vn 0.583850 -0.439955 -0.682272
vn 0.469497 -0.559984 -0.682607
vn 0.334574 -0.648762 0.683462
vn 0.334574 -0.648762 -0.683462
vn 0.190435 -0.703513 0.684652
vn 0.190466 -0.703513 -0.684652
vn 0.046754 -0.726157 0.685934
vn 0.046754 -0.726157 -0.685934
vn -0.090182 -0.720969 0.687033
vn -0.090182 -0.720969 -0.687033
vn -0.217078 -0.692526 0.687918
vn -0.217078 -0.692526 -0.687918
vn -0.332621 -0.644459 0.688467
vn -0.332621 -0.644459 -0.688467
vn -0.436354 -0.579058 0.688650
vn -0.436354 -0.579058 -0.688650
vn -0.527818 -0.497391 0.688467
vn -0.527818 -0.497391 -0.688467
vn -0.605853 -0.399579 0.687918
vn -0.605853 -0.399579 -0.687918
vn -0.668172 -0.285409 0.687063
vn -0.668172 -0.285409 -0.687063
vn -0.710898 -0.155187 0.685934
vn -0.710898 -0.155187 -0.685903
vn -0.728751 -0.010804 0.684652
vn -0.728751 -0.010804 -0.684652
vn -0.715842 0.142796 0.683462
vn -0.715842 0.142796 -0.683462
vn -0.667714 0.296976 0.682607
vn -0.667684 0.296976 -0.682607
vn -0.583850 0.439955 0.682272
vn -0.583850 0.439955 -0.682272
vn -0.469497 0.559984 0.682607
vn -0.469497 0.559984 -0.682607
vn -0.334574 0.648762 0.683462
vn -0.334574 0.648762 -0.683462
vn -0.190466 0.703513 0.684652
vn -0.190466 0.703513 -0.684652
vn -0.046754 0.726157 0.685903
vn -0.046754 0.726157 -0.685903
vn 0.090182 0.720969 0.687063
vn 0.090182 0.720969 -0.687063
vn 0.217078 0.692526 0.687918
vn 0.217078 0.692526 -0.687918
vn 0.332621 0.644459 0.688467
vn 0.332621 0.644459 -0.688467
vn 0.436354 0.579058 0.688650
vn 0.436354 0.579058 -0.688650
vn 0.527818 0.497391 0.688467
vn 0.527818 0.497391 -0.688467
vn 0.605853 0.399548 0.687918
vn 0.605853 0.399579 -0.687918
vn 0.668172 0.285409 0.687033
vn 0.668172 0.285409 -0.687033
vn 0.710898 0.155187 0.685934
vn 0.710898 0.155187 -0.685934
vn 0.728751 0.010804 0.684652
vn 0.728751 0.010834 -0.684652
vn 0.715842 -0.142796 0.683462
vn 0.715842 -0.142796 -0.683462
vn 0.667714 -0.296976 0.682607
vn 0.667714 -0.296976 -0.682607
usemtl _stainless-steel.jpg
s 1
f 1/1/1 2/2/2 3/3/3
f 4/4/4 5/5/5 6/6/6
f 1/1/1 3/3/3 7/7/7
f 4/4/4 8/8/8 5/5/5
f 1/1/1 7/7/7 9/9/9
f 4/4/4 10/10/10 8/8/8
f 1/1/1 9/9/9 11/11/11
f 4/4/4 12/12/12 10/10/10
f 1/1/1 11/11/11 13/13/13
f 4/4/4 14/14/14 12/12/12
f 1/1/1 13/13/13 15/15/15
f 4/4/4 16/16/16 14/14/14
f 1/1/1 15/15/15 17/17/17
f 4/4/4 18/18/18 16/16/16
f 1/1/1 17/17/17 19/19/19
f 4/4/4 20/20/20 18/18/18
f 1/1/1 19/19/19 21/21/21
f 4/4/4 22/22/22 20/20/20
f 1/1/1 21/21/21 23/23/23
f 4/4/4 24/24/24 22/22/22
f 1/1/1 23/23/23 25/25/25
f 4/4/4 26/26/26 24/24/24
f 1/1/1 25/25/25 27/27/27
f 4/4/4 28/28/28 26/26/26
f 1/1/1 27/27/27 29/29/29
f 4/4/4 30/30/30 28/28/28
f 1/1/1 29/29/29 31/31/31
f 4/4/4 32/32/32 30/30/30
f 1/1/1 31/31/31 33/33/33
f 4/4/4 34/34/34 32/32/32
f 1/1/1 33/33/33 35/35/35
f 4/4/4 36/36/36 34/34/34
f 1/1/1 35/35/35 37/37/37
f 4/4/4 38/38/38 36/36/36
f 1/1/1 37/37/37 39/39/39
f 4/4/4 40/40/40 38/38/38
f 1/1/1 39/39/39 41/41/41
f 4/4/4 42/42/42 40/40/40
f 1/1/1 41/41/41 43/43/43
f 4/4/4 44/44/44 42/42/42
f 1/1/1 43/43/43 45/45/45
f 4/4/4 46/46/46 44/44/44
f 1/1/1 45/45/45 47/46/47
f 4/4/4 48/47/48 46/46/46
f 1/1/1 47/46/47 49/47/49
f 4/4/4 50/48/50 48/47/48
f 1/1/1 49/47/49 51/49/51
f 4/4/4 52/50/52 50/48/50
f 1/1/1 51/49/51 53/51/53
f 4/4/4 54/52/54 52/50/52
f 1/1/1 53/51/53 55/53/55
f 4/4/4 56/54/56 54/52/54
f 1/1/1 55/53/55 57/55/57
f 4/4/4 58/56/58 56/54/56
f 1/1/1 57/55/57 59/57/59
f 4/4/4 60/58/60 58/56/58
f 1/1/1 59/57/59 61/59/61
f 4/4/4 62/60/62 60/58/60
f 1/1/1 61/59/61 63/61/63
f 4/4/4 64/62/64 62/60/62
f 1/1/1 63/61/63 65/63/65
f 4/4/4 66/64/66 64/62/64
f 2/2/2 1/1/1 65/63/65
f 4/4/4 6/6/6 66/64/66
f 2/65/2 6/66/6 5/67/5
f 2/65/2 5/67/5 3/68/3
f 3/68/3 5/67/5 8/69/8
f 3/68/3 8/69/8 7/70/7
f 7/70/7 8/69/8 10/71/10
f 7/70/7 10/71/10 9/72/9
f 9/72/9 10/71/10 12/73/12
f 9/72/9 12/73/12 11/74/11
f 11/75/11 12/76/12 14/77/14
f 11/75/11 14/77/14 13/78/13
f 13/78/13 14/77/14 16/79/16
f 13/78/13 16/79/16 15/80/15
f 15/80/15 16/79/16 18/81/18
f 15/80/15 18/81/18 17/82/17
f 17/82/17 18/81/18 20/83/20
f 17/82/17 20/83/20 19/84/19
f 19/84/19 20/83/20 22/85/22
f 19/84/19 22/85/22 21/86/21
f 21/86/21 22/85/22 24/87/24
f 21/86/21 24/87/24 23/88/23
f 23/88/23 24/87/24 26/89/26
f 23/88/23 26/89/26 25/90/25
f 25/90/25 26/89/26 28/91/28
f 25/90/25 28/91/28 27/92/27
f 27/93/27 28/94/28 30/95/30
f 27/93/27 30/95/30 29/96/29
f 29/96/29 30/95/30 32/97/32
f 29/96/29 32/97/32 31/98/31
f 31/98/31 32/97/32 34/99/34
f 31/98/31 34/99/34 33/100/33
f 33/100/33 34/99/34 36/101/36
f 33/100/33 36/101/36 35/102/35
f 35/102/35 36/101/36 38/103/38
f 35/102/35 38/103/38 37/104/37
f 37/104/37 38/103/38 40/105/40
f 37/104/37 40/105/40 39/106/39
f 39/106/39 40/105/40 42/107/42
f 39/106/39 42/107/42 41/108/41
f 41/108/41 42/107/42 44/109/44
f 41/108/41 44/109/44 43/110/43
f 43/111/43 44/112/44 46/113/46
f 43/111/43 46/113/46 45/114/45
f 45/114/45 46/113/46 48/115/48
f 45/114/45 48/115/48 47/116/47
f 47/116/47 48/115/48 50/117/50
f 47/116/47 50/117/50 49/118/49
f 49/118/49 50/117/50 52/119/52
f 49/118/49 52/119/52 51/120/51
f 51/120/51 52/119/52 54/121/54
f 51/120/51 54/121/54 53/122/53
f 53/122/53 54/121/54 56/123/56
f 53/122/53 56/123/56 55/124/55
f 55/124/55 56/123/56 58/125/58
f 55/124/55 58/125/58 57/126/57
f 57/126/57 58/125/58 60/127/60
f 57/126/57 60/127/60 59/91/59
f 59/128/59 60/129/60 62/130/62
f 59/128/59 62/130/62 61/131/61
f 61/131/61 62/130/62 64/132/64
f 61/131/61 64/132/64 63/133/63
f 63/133/63 64/132/64 66/134/66
f 63/133/63 66/134/66 65/135/65
f 6/66/6 2/65/2 65/135/65
f 6/66/6 65/135/65 66/134/66
f 67/136/67 68/137/68 69/138/69
f 70/139/70 71/140/71 72/141/72
f 67/136/67 73/142/73 68/137/68
f 70/139/70 72/141/72 74/143/74
f 67/136/67 75/144/75 73/142/73
f 70/139/70 74/143/74 76/145/76
f 67/136/67 77/146/77 75/144/75
f 70/139/70 76/145/76 78/147/78
f 67/136/67 79/148/79 77/146/77
f 70/139/70 78/147/78 80/149/80
f 67/136/67 81/150/81 79/148/79
f 70/139/70 80/149/80 82/151/82
f 67/136/67 83/152/83 81/150/81
f 70/139/70 82/151/82 84/153/84
f 67/136/67 85/154/85 83/152/83
f 70/139/70 84/153/84 86/155/86
f 67/136/67 87/156/87 85/154/85
f 70/139/70 86/155/86 88/157/88
f 67/136/67 89/158/89 87/156/87
f 70/139/70 88/157/88 90/159/90
f 67/136/67 91/160/91 89/158/89
f 70/139/70 90/159/90 92/161/92
f 67/136/67 93/162/93 91/160/91
f 70/139/70 92/161/92 94/163/94
f 67/136/67 95/164/95 93/162/93
f 70/139/70 94/163/94 96/165/96
f 67/136/67 97/166/97 95/164/95
f 70/139/70 96/165/96 98/167/98
f 67/136/67 99/168/99 97/166/97
f 70/139/70 98/167/98 100/169/100
f 67/136/67 101/170/101 99/168/99
f 70/139/70 100/169/100 102/171/102
f 67/136/67 103/172/103 101/170/101
f 70/139/70 102/171/102 104/173/104
f 67/136/67 105/174/105 103/172/103
f 70/139/70 104/173/104 106/175/106
f 67/136/67 107/176/107 105/174/105
f 70/139/70 106/175/106 108/177/108
f 67/136/67 109/178/109 107/176/107
f 70/139/70 108/177/108 110/179/110
f 67/136/67 111/180/111 109/178/109
f 70/139/70 110/179/110 112/181/112
f 67/136/67 113/182/113 111/180/111
f 70/139/70 112/181/112 114/183/114
f 67/136/67 115/184/115 113/182/113
f 70/139/70 114/183/114 116/185/116
f 67/136/67 117/186/117 115/184/115
f 70/139/70 116/185/116 118/187/118
f 67/136/67 119/188/119 117/186/117
f 70/139/70 118/187/118 120/189/120
f 67/136/67 121/190/121 119/188/119
f 70/139/70 120/189/120 122/191/122
f 67/136/67 123/192/123 121/190/121
f 70/139/70 122/191/122 124/193/124
f 67/136/67 125/194/125 123/192/123
f 70/139/70 124/193/124 126/195/126
f 67/136/67 127/196/127 125/194/125
f 70/139/70 126/195/126 128/197/128
f 67/136/67 129/198/129 127/196/127
f 70/139/70 128/197/128 130/199/130
f 67/136/67 131/200/131 129/198/129
f 70/139/70 130/199/130 132/201/132
f 67/136/67 69/138/69 131/200/131
f 70/139/70 132/201/132 71/140/71
f 69/202/69 68/203/68 72/204/72
f 69/202/69 72/204/72 71/205/71
f 68/203/68 73/206/73 74/207/74
f 68/203/68 74/207/74 72/204/72
f 73/206/73 75/208/75 76/209/76
f 73/206/73 76/209/76 74/207/74
f 75/208/75 77/210/77 78/211/78
f 75/208/75 78/211/78 76/209/76
f 77/212/77 79/213/79 80/214/80
f 77/212/77 80/214/80 78/215/78
f 79/213/79 81/216/81 82/217/82
f 79/213/79 82/217/82 80/214/80
f 81/216/81 83/218/83 84/219/84
f 81/216/81 84/219/84 82/217/82
f 83/218/83 85/220/85 86/221/86
f 83/218/83 86/221/86 84/219/84
f 85/220/85 87/222/87 88/223/88
f 85/220/85 88/223/88 86/221/86
f 87/222/87 89/224/89 90/225/90
f 87/222/87 90/225/90 88/223/88
f 89/224/89 91/226/91 92/227/92
f 89/224/89 92/227/92 90/225/90
f 91/226/91 93/228/93 94/229/94
f 91/226/91 94/229/94 92/227/92
f 93/230/93 95/231/95 96/232/96
f 93/230/93 96/232/96 94/233/94
f 95/231/95 97/234/97 98/235/98
f 95/231/95 98/235/98 96/232/96
f 97/234/97 99/236/99 100/237/100
f 97/234/97 100/237/100 98/235/98
f 99/236/99 101/238/101 102/239/102
f 99/236/99 102/239/102 100/237/100
f 101/238/101 103/240/103 104/241/104
f 101/238/101 104/241/104 102/239/102
f 103/240/103 105/242/105 106/243/106
f 103/240/103 106/243/106 104/241/104
f 105/242/105 107/244/107 108/245/108
f 105/242/105 108/245/108 106/243/106
f 107/244/107 109/246/109 110/247/110
f 107/244/107 110/247/110 108/245/108
f 109/248/109 111/249/111 112/250/112
f 109/248/109 112/250/112 110/251/110
f 111/249/111 113/252/113 114/253/114
f 111/249/111 114/253/114 112/250/112
f 113/252/113 115/254/115 116/255/116
f 113/252/113 116/255/116 114/253/114
f 115/254/115 117/256/117 118/257/118
f 115/254/115 118/257/118 116/255/116
f 117/256/117 119/258/119 120/259/120
f 117/256/117 120/259/120 118/257/118
f 119/258/119 121/260/121 122/261/122
f 119/258/119 122/261/122 120/259/120
f 121/260/121 123/262/123 124/263/124
f 121/260/121 124/263/124 122/261/122
f 123/262/123 125/264/125 126/265/126
f 123/262/123 126/265/126 124/263/124
f 125/266/125 127/267/127 128/268/128
f 125/266/125 128/268/128 126/269/126
f 127/267/127 129/270/129 130/271/130
f 127/267/127 130/271/130 128/268/128
f 129/270/129 131/272/131 132/273/132
f 129/270/129 132/273/132 130/271/130
f 131/272/131 69/202/69 71/205/71
f 131/272/131 71/205/71 132/273/132
