# Blender v2.62 (sub 0) OBJ File: 'triplate.blend'
# www.blender.org
mtllib triplate.mtl
o Cube
v 1.802133 -13.708567 0.535207
v -0.197869 0.291433 0.535202
v -0.197870 0.291432 -0.422179
v 1.802132 -13.708569 -0.422174
v 6.802132 -7.858540 0.535204
v 13.802131 0.291436 0.535199
v 13.802131 0.291434 -0.422182
v 6.802132 -7.858541 -0.422178
vn -0.989950 -0.141422 0.000001
vn 0.758598 -0.651559 0.000001
vn 0.000000 0.000000 1.000000
vn -0.000000 1.000000 -0.000002
vn -0.000000 -0.000000 -1.000000
vn 0.760175 -0.649719 0.000001
usemtl Material
s off
f 1//1 2//1 3//1
f 1//1 3//1 4//1
f 5//2 8//2 7//2
f 5//2 7//2 6//2
f 1//3 5//3 6//3
f 1//3 6//3 2//3
f 2//4 6//4 7//4
f 2//4 7//4 3//4
f 3//5 7//5 8//5
f 3//5 8//5 4//5
f 5//6 1//6 4//6
f 5//6 4//6 8//6
