# Blender v2.62 (sub 0) OBJ File: 'short_bar.blend'
# www.blender.org
mtllib pistonBar_short.mtl
o Cylinder
v 2.945532 -0.215888 -0.006465
v 2.945532 -0.211084 -0.055237
v 2.945532 -0.196858 -0.102136
v 2.945532 -0.173755 -0.145357
v 2.945532 -0.142664 -0.183242
v 2.945532 -0.104780 -0.214332
v 2.945532 -0.061559 -0.237434
v 2.945532 -0.014660 -0.251661
v 2.945531 0.034112 -0.256464
v 2.945532 0.082885 -0.251661
v 2.945531 0.129783 -0.237434
v 2.945532 0.173005 -0.214332
v 2.945532 0.210889 -0.183241
v 2.945532 0.241980 -0.145357
v 2.945532 0.265082 -0.102136
v 2.945531 0.279309 -0.055237
v 2.945532 0.284112 -0.006465
v 2.945531 0.279308 0.042308
v 2.945531 0.265082 0.089206
v 2.945531 0.241980 0.132428
v 2.945531 0.210889 0.170312
v 2.945532 0.173005 0.201403
v 2.945532 0.129783 0.224506
v 2.945532 0.082885 0.238732
v 2.945532 0.034112 0.243536
v 2.945532 -0.014661 0.238732
v 2.945532 -0.061559 0.224505
v 2.945532 -0.104781 0.201403
v 2.945532 -0.142665 0.170312
v 2.945532 -0.173755 0.132428
v 2.945532 -0.196858 0.089206
v 2.945532 -0.211084 0.042308
v -0.141827 -0.215893 -0.006466
v -0.141827 -0.211089 -0.055238
v -0.141828 -0.196862 -0.102137
v -0.141828 -0.173760 -0.145358
v -0.141827 -0.142669 -0.183242
v -0.141827 -0.104785 -0.214333
v -0.141827 -0.061563 -0.237435
v -0.141828 -0.014665 -0.251662
v -0.141828 0.034108 -0.256465
v -0.141828 0.082881 -0.251662
v -0.141827 0.129779 -0.237435
v -0.141828 0.173000 -0.214332
v -0.141827 0.210884 -0.183242
v -0.141828 0.241975 -0.145358
v -0.141828 0.265077 -0.102136
v -0.141828 0.279304 -0.055238
v -0.141828 0.284107 -0.006465
v -0.141828 0.279304 0.042307
v -0.141828 0.265078 0.089205
v -0.141828 0.241975 0.132427
v -0.141827 0.210885 0.170311
v -0.141828 0.173001 0.201402
v -0.141828 0.129779 0.224505
v -0.141827 0.082881 0.238731
v -0.141827 0.034109 0.243535
v -0.141827 -0.014664 0.238731
v -0.141827 -0.061562 0.224505
v -0.141827 -0.104784 0.201403
v -0.141828 -0.142668 0.170313
v -0.141827 -0.173759 0.132429
v -0.141827 -0.196862 0.089207
v -0.141827 -0.211088 0.042309
v 2.945532 0.034112 -0.006464
v -0.141827 0.034107 -0.006465
v 0.020807 0.372004 0.462189
v 0.079334 0.365279 0.462189
v 0.135612 0.345362 0.462189
v 0.187478 0.313019 0.462189
v 0.232939 0.269492 0.462189
v 0.270247 0.216454 0.462189
v 0.297971 0.155943 0.462189
v 0.315042 0.090286 0.462189
v 0.320807 0.022004 0.462189
v 0.315042 -0.046277 0.462189
v 0.297971 -0.111935 0.462188
v 0.270248 -0.172445 0.462188
v 0.232939 -0.225483 0.462188
v 0.187478 -0.269010 0.462188
v 0.135612 -0.301354 0.462188
v 0.079334 -0.321271 0.462189
v 0.020807 -0.327996 0.462188
v -0.037720 -0.321271 0.462188
v -0.093998 -0.301354 0.462188
v -0.145864 -0.269010 0.462188
v -0.191326 -0.225483 0.462189
v -0.228633 -0.172445 0.462188
v -0.256357 -0.111935 0.462189
v -0.273429 -0.046277 0.462189
v -0.279194 0.022005 0.462189
v -0.273429 0.090286 0.462189
v -0.256358 0.155944 0.462189
v -0.228634 0.216454 0.462189
v -0.191325 0.269492 0.462189
v -0.145864 0.313019 0.462189
v -0.093998 0.345362 0.462189
v -0.037720 0.365279 0.462189
v 0.020807 0.372005 -0.468268
v 0.079334 0.365279 -0.468269
v 0.135612 0.345362 -0.468268
v 0.187478 0.313019 -0.468268
v 0.232939 0.269492 -0.468269
v 0.270248 0.216454 -0.468269
v 0.297971 0.155943 -0.468269
v 0.315042 0.090286 -0.468269
v 0.320807 0.022004 -0.468269
v 0.315042 -0.046278 -0.468269
v 0.297971 -0.111935 -0.468269
v 0.270248 -0.172445 -0.468269
v 0.232939 -0.225483 -0.468269
v 0.187478 -0.269010 -0.468269
v 0.135612 -0.301353 -0.468269
v 0.079335 -0.321270 -0.468269
v 0.020808 -0.327995 -0.468269
v -0.037720 -0.321270 -0.468269
v -0.093997 -0.301353 -0.468269
v -0.145864 -0.269010 -0.468269
v -0.191325 -0.225483 -0.468269
v -0.228633 -0.172446 -0.468269
v -0.256357 -0.111936 -0.468269
v -0.273429 -0.046278 -0.468269
v -0.279194 0.022003 -0.468269
v -0.273429 0.090285 -0.468269
v -0.256358 0.155942 -0.468269
v -0.228635 0.216453 -0.468269
v -0.191326 0.269491 -0.468269
v -0.145865 0.313018 -0.468269
v -0.094000 0.345362 -0.468269
v -0.037723 0.365279 -0.468268
v 0.020807 0.022004 0.462189
v 0.020807 0.022005 -0.468269
vn 1.000000 0.000000 0.000000
vn 0.685690 -0.727866 0.000000
vn 0.685690 -0.713889 -0.141972
vn -1.000000 0.000000 0.000000
vn -0.685690 -0.713889 -0.141972
vn -0.685690 -0.727866 0.000000
vn 0.685690 -0.672475 -0.278542
vn -0.685690 -0.672475 -0.278542
vn 0.685690 -0.605182 -0.404370
vn -0.685690 -0.605213 -0.404370
vn 0.685690 -0.514664 -0.514695
vn -0.685690 -0.514664 -0.514695
vn 0.685690 -0.404370 -0.605213
vn -0.685690 -0.404370 -0.605213
vn 0.685690 -0.278542 -0.672475
vn -0.685690 -0.278542 -0.672475
vn 0.685690 -0.141972 -0.713889
vn -0.685690 -0.142003 -0.713889
vn 0.685690 0.000000 -0.727866
vn -0.685690 0.000000 -0.727866
vn 0.685690 0.142003 -0.713889
vn -0.685690 0.142003 -0.713889
vn 0.685690 0.278542 -0.672475
vn -0.685690 0.278542 -0.672475
vn 0.685690 0.404370 -0.605213
vn -0.685690 0.404370 -0.605213
vn 0.685690 0.514695 -0.514664
vn -0.685690 0.514695 -0.514695
vn 0.685690 0.605213 -0.404370
vn -0.685690 0.605213 -0.404370
vn 0.685690 0.672475 -0.278542
vn -0.685690 0.672475 -0.278542
vn 0.685690 0.713889 -0.142003
vn -0.685690 0.713889 -0.142003
vn 0.685690 0.727866 0.000000
vn -0.685690 0.727866 0.000000
vn 0.685690 0.713889 0.142003
vn -0.685690 0.713889 0.142003
vn 0.685690 0.672475 0.278542
vn -0.685690 0.672475 0.278542
vn 0.685690 0.605213 0.404370
vn -0.685690 0.605213 0.404370
vn 0.685690 0.514695 0.514664
vn -0.685690 0.514695 0.514695
vn 0.685690 0.404370 0.605213
vn -0.685690 0.404370 0.605182
vn 0.685690 0.278542 0.672475
vn -0.685690 0.278542 0.672475
vn 0.685690 0.142003 0.713889
vn -0.685690 0.141972 0.713889
vn 0.685690 0.000000 0.727866
vn -0.685690 0.000000 0.727866
vn 0.685690 -0.142003 0.713889
vn -0.685690 -0.142003 0.713889
vn 0.685690 -0.278542 0.672475
vn -0.685690 -0.278542 0.672475
vn 0.685690 -0.404370 0.605213
vn -0.685690 -0.404370 0.605213
vn 0.685690 -0.514664 0.514695
vn -0.685690 -0.514664 0.514664
vn 0.685690 -0.605182 0.404370
vn -0.685690 -0.605213 0.404370
vn 0.685690 -0.672475 0.278542
vn -0.685690 -0.672475 0.278542
vn 0.685690 -0.713889 0.141972
vn -0.685690 -0.713889 0.142003
vn 0.000000 0.000000 1.000000
vn 0.164647 0.711966 0.682607
vn 0.000000 0.731071 0.682272
vn 0.000000 0.000000 -0.999969
vn 0.000000 0.731071 -0.682272
vn 0.164647 0.711966 -0.682607
vn 0.316752 0.657643 0.683462
vn 0.316752 0.657643 -0.683462
vn 0.447218 0.575488 0.684652
vn 0.447218 0.575488 -0.684652
vn 0.551775 0.474349 0.685934
vn 0.551775 0.474349 -0.685934
vn 0.630055 0.361858 0.687063
vn 0.630055 0.361858 -0.687033
vn 0.683737 0.243385 0.687918
vn 0.683737 0.243385 -0.687918
vn 0.714866 0.122196 0.688467
vn 0.714866 0.122196 -0.688467
vn 0.725059 0.000000 0.688650
vn 0.725089 0.000000 -0.688650
vn 0.714866 -0.122196 0.688467
vn 0.714866 -0.122196 -0.688467
vn 0.683737 -0.243385 0.687918
vn 0.683737 -0.243385 -0.687918
vn 0.630055 -0.361858 0.687033
vn 0.630055 -0.361858 -0.687063
vn 0.551775 -0.474349 0.685903
vn 0.551775 -0.474349 -0.685903
vn 0.447218 -0.575488 0.684652
vn 0.447218 -0.575488 -0.684652
vn 0.316752 -0.657643 0.683462
vn 0.316752 -0.657643 -0.683462
vn 0.164647 -0.711966 0.682607
vn 0.164647 -0.711966 -0.682607
vn 0.000000 -0.731071 0.682272
vn 0.000000 -0.731071 -0.682272
vn -0.164647 -0.711966 0.682607
vn -0.164647 -0.711966 -0.682607
vn -0.316752 -0.657643 0.683462
vn -0.316752 -0.657643 -0.683462
vn -0.447218 -0.575488 0.684652
vn -0.447218 -0.575488 -0.684652
vn -0.551775 -0.474349 0.685903
vn -0.551775 -0.474349 -0.685934
vn -0.630055 -0.361858 0.687063
vn -0.630055 -0.361858 -0.687063
vn -0.683737 -0.243385 0.687918
vn -0.683737 -0.243385 -0.687918
vn -0.714866 -0.122196 0.688467
vn -0.714866 -0.122196 -0.688467
vn -0.725089 0.000000 0.688650
vn -0.725089 0.000000 -0.688650
vn -0.714866 0.122196 0.688467
vn -0.714866 0.122196 -0.688467
vn -0.683737 0.243385 0.687918
vn -0.683737 0.243385 -0.687918
vn -0.630055 0.361858 0.687063
vn -0.630055 0.361858 -0.687033
vn -0.551775 0.474349 0.685903
vn -0.551775 0.474349 -0.685934
vn -0.447218 0.575488 0.684652
vn -0.447218 0.575488 -0.684652
vn -0.316752 0.657643 0.683462
vn -0.316752 0.657643 -0.683462
vn -0.164647 0.711966 0.682607
vn -0.164647 0.711966 -0.682607
usemtl Material.001
s 1
f 65//1 1//2 2//3
f 66//4 34//5 33//6
f 65//1 2//3 3//7
f 66//4 35//8 34//5
f 65//1 3//7 4//9
f 66//4 36//10 35//8
f 65//1 4//9 5//11
f 66//4 37//12 36//10
f 65//1 5//11 6//13
f 66//4 38//14 37//12
f 65//1 6//13 7//15
f 66//4 39//16 38//14
f 65//1 7//15 8//17
f 66//4 40//18 39//16
f 65//1 8//17 9//19
f 66//4 41//20 40//18
f 65//1 9//19 10//21
f 66//4 42//22 41//20
f 65//1 10//21 11//23
f 66//4 43//24 42//22
f 65//1 11//23 12//25
f 66//4 44//26 43//24
f 65//1 12//25 13//27
f 66//4 45//28 44//26
f 65//1 13//27 14//29
f 66//4 46//30 45//28
f 65//1 14//29 15//31
f 66//4 47//32 46//30
f 65//1 15//31 16//33
f 66//4 48//34 47//32
f 65//1 16//33 17//35
f 66//4 49//36 48//34
f 65//1 17//35 18//37
f 66//4 50//38 49//36
f 65//1 18//37 19//39
f 66//4 51//40 50//38
f 65//1 19//39 20//41
f 66//4 52//42 51//40
f 65//1 20//41 21//43
f 66//4 53//44 52//42
f 65//1 21//43 22//45
f 66//4 54//46 53//44
f 65//1 22//45 23//47
f 66//4 55//48 54//46
f 65//1 23//47 24//49
f 66//4 56//50 55//48
f 65//1 24//49 25//51
f 66//4 57//52 56//50
f 65//1 25//51 26//53
f 66//4 58//54 57//52
f 65//1 26//53 27//55
f 66//4 59//56 58//54
f 65//1 27//55 28//57
f 66//4 60//58 59//56
f 65//1 28//57 29//59
f 66//4 61//60 60//58
f 65//1 29//59 30//61
f 66//4 62//62 61//60
f 65//1 30//61 31//63
f 66//4 63//64 62//62
f 65//1 31//63 32//65
f 66//4 64//66 63//64
f 32//65 1//2 65//1
f 66//4 33//6 64//66
f 1//2 33//6 34//5
f 1//2 34//5 2//3
f 2//3 34//5 35//8
f 2//3 35//8 3//7
f 3//7 35//8 36//10
f 3//7 36//10 4//9
f 4//9 36//10 37//12
f 4//9 37//12 5//11
f 5//11 37//12 38//14
f 5//11 38//14 6//13
f 6//13 38//14 39//16
f 6//13 39//16 7//15
f 7//15 39//16 40//18
f 7//15 40//18 8//17
f 8//17 40//18 41//20
f 8//17 41//20 9//19
f 9//19 41//20 42//22
f 9//19 42//22 10//21
f 10//21 42//22 43//24
f 10//21 43//24 11//23
f 11//23 43//24 44//26
f 11//23 44//26 12//25
f 12//25 44//26 45//28
f 12//25 45//28 13//27
f 13//27 45//28 46//30
f 13//27 46//30 14//29
f 14//29 46//30 47//32
f 14//29 47//32 15//31
f 15//31 47//32 48//34
f 15//31 48//34 16//33
f 16//33 48//34 49//36
f 16//33 49//36 17//35
f 17//35 49//36 50//38
f 17//35 50//38 18//37
f 18//37 50//38 51//40
f 18//37 51//40 19//39
f 19//39 51//40 52//42
f 19//39 52//42 20//41
f 20//41 52//42 53//44
f 20//41 53//44 21//43
f 21//43 53//44 54//46
f 21//43 54//46 22//45
f 22//45 54//46 55//48
f 22//45 55//48 23//47
f 23//47 55//48 56//50
f 23//47 56//50 24//49
f 24//49 56//50 57//52
f 24//49 57//52 25//51
f 25//51 57//52 58//54
f 25//51 58//54 26//53
f 26//53 58//54 59//56
f 26//53 59//56 27//55
f 27//55 59//56 60//58
f 27//55 60//58 28//57
f 28//57 60//58 61//60
f 28//57 61//60 29//59
f 29//59 61//60 62//62
f 29//59 62//62 30//61
f 30//61 62//62 63//64
f 30//61 63//64 31//63
f 31//63 63//64 64//66
f 31//63 64//66 32//65
f 33//6 1//2 32//65
f 33//6 32//65 64//66
f 131//67 68//68 67//69
f 132//70 99//71 100//72
f 131//67 69//73 68//68
f 132//70 100//72 101//74
f 131//67 70//75 69//73
f 132//70 101//74 102//76
f 131//67 71//77 70//75
f 132//70 102//76 103//78
f 131//67 72//79 71//77
f 132//70 103//78 104//80
f 131//67 73//81 72//79
f 132//70 104//80 105//82
f 131//67 74//83 73//81
f 132//70 105//82 106//84
f 131//67 75//85 74//83
f 132//70 106//84 107//86
f 131//67 76//87 75//85
f 132//70 107//86 108//88
f 131//67 77//89 76//87
f 132//70 108//88 109//90
f 131//67 78//91 77//89
f 132//70 109//90 110//92
f 131//67 79//93 78//91
f 132//70 110//92 111//94
f 131//67 80//95 79//93
f 132//70 111//94 112//96
f 131//67 81//97 80//95
f 132//70 112//96 113//98
f 131//67 82//99 81//97
f 132//70 113//98 114//100
f 131//67 83//101 82//99
f 132//70 114//100 115//102
f 131//67 84//103 83//101
f 132//70 115//102 116//104
f 131//67 85//105 84//103
f 132//70 116//104 117//106
f 131//67 86//107 85//105
f 132//70 117//106 118//108
f 131//67 87//109 86//107
f 132//70 118//108 119//110
f 131//67 88//111 87//109
f 132//70 119//110 120//112
f 131//67 89//113 88//111
f 132//70 120//112 121//114
f 131//67 90//115 89//113
f 132//70 121//114 122//116
f 131//67 91//117 90//115
f 132//70 122//116 123//118
f 131//67 92//119 91//117
f 132//70 123//118 124//120
f 131//67 93//121 92//119
f 132//70 124//120 125//122
f 131//67 94//123 93//121
f 132//70 125//122 126//124
f 131//67 95//125 94//123
f 132//70 126//124 127//126
f 131//67 96//127 95//125
f 132//70 127//126 128//128
f 131//67 97//129 96//127
f 132//70 128//128 129//130
f 131//67 98//131 97//129
f 132//70 129//130 130//132
f 131//67 67//69 98//131
f 132//70 130//132 99//71
f 67//69 68//68 100//72
f 67//69 100//72 99//71
f 68//68 69//73 101//74
f 68//68 101//74 100//72
f 69//73 70//75 102//76
f 69//73 102//76 101//74
f 70//75 71//77 103//78
f 70//75 103//78 102//76
f 71//77 72//79 104//80
f 71//77 104//80 103//78
f 72//79 73//81 105//82
f 72//79 105//82 104//80
f 73//81 74//83 106//84
f 73//81 106//84 105//82
f 74//83 75//85 107//86
f 74//83 107//86 106//84
f 75//85 76//87 108//88
f 75//85 108//88 107//86
f 76//87 77//89 109//90
f 76//87 109//90 108//88
f 77//89 78//91 110//92
f 77//89 110//92 109//90
f 78//91 79//93 111//94
f 78//91 111//94 110//92
f 79//93 80//95 112//96
f 79//93 112//96 111//94
f 80//95 81//97 113//98
f 80//95 113//98 112//96
f 81//97 82//99 114//100
f 81//97 114//100 113//98
f 82//99 83//101 115//102
f 82//99 115//102 114//100
f 83//101 84//103 116//104
f 83//101 116//104 115//102
f 84//103 85//105 117//106
f 84//103 117//106 116//104
f 85//105 86//107 118//108
f 85//105 118//108 117//106
f 86//107 87//109 119//110
f 86//107 119//110 118//108
f 87//109 88//111 120//112
f 87//109 120//112 119//110
f 88//111 89//113 121//114
f 88//111 121//114 120//112
f 89//113 90//115 122//116
f 89//113 122//116 121//114
f 90//115 91//117 123//118
f 90//115 123//118 122//116
f 91//117 92//119 124//120
f 91//117 124//120 123//118
f 92//119 93//121 125//122
f 92//119 125//122 124//120
f 93//121 94//123 126//124
f 93//121 126//124 125//122
f 94//123 95//125 127//126
f 94//123 127//126 126//124
f 95//125 96//127 128//128
f 95//125 128//128 127//126
f 96//127 97//129 129//130
f 96//127 129//130 128//128
f 97//129 98//131 130//132
f 97//129 130//132 129//130
f 98//131 67//69 99//71
f 98//131 99//71 130//132
