# Blender v2.62 (sub 0) OBJ File: ''
# www.blender.org
mtllib pistonBar_short.mtl
o Mesh_Cylinder
v 2.945532 0.034112 -0.006464
v 2.945532 -0.215888 -0.006465
v 2.945532 -0.211084 -0.055237
v -0.141827 0.034107 -0.006465
v -0.141827 -0.211089 -0.055238
v -0.141827 -0.215893 -0.006466
v 2.945532 -0.196858 -0.102136
v -0.141828 -0.196862 -0.102137
v 2.945532 -0.173755 -0.145357
v -0.141828 -0.173760 -0.145358
v 2.945532 -0.142664 -0.183242
v -0.141827 -0.142669 -0.183242
v 2.945532 -0.104780 -0.214332
v -0.141827 -0.104785 -0.214333
v 2.945532 -0.061559 -0.237434
v -0.141827 -0.061563 -0.237435
v 2.945532 -0.014660 -0.251661
v -0.141828 -0.014665 -0.251662
v 2.945531 0.034112 -0.256464
v -0.141828 0.034108 -0.256465
v 2.945532 0.082885 -0.251661
v -0.141828 0.082881 -0.251662
v 2.945531 0.129783 -0.237434
v -0.141827 0.129779 -0.237435
v 2.945532 0.173005 -0.214332
v -0.141828 0.173000 -0.214332
v 2.945532 0.210889 -0.183241
v -0.141827 0.210884 -0.183242
v 2.945532 0.241980 -0.145357
v -0.141828 0.241975 -0.145358
v 2.945532 0.265082 -0.102136
v -0.141828 0.265077 -0.102136
v 2.945531 0.279309 -0.055237
v -0.141828 0.279304 -0.055238
v 2.945532 0.284112 -0.006465
v -0.141828 0.284107 -0.006465
v 2.945531 0.279308 0.042308
v -0.141828 0.279304 0.042307
v 2.945531 0.265082 0.089206
v -0.141828 0.265078 0.089205
v 2.945531 0.241980 0.132428
v -0.141828 0.241975 0.132427
v 2.945531 0.210889 0.170312
v -0.141827 0.210885 0.170311
v 2.945532 0.173005 0.201403
v -0.141828 0.173001 0.201402
v 2.945532 0.129783 0.224506
v -0.141828 0.129779 0.224505
v 2.945532 0.082885 0.238732
v -0.141827 0.082881 0.238731
v 2.945532 0.034112 0.243536
v -0.141827 0.034109 0.243535
v 2.945532 -0.014661 0.238732
v -0.141827 -0.014664 0.238731
v 2.945532 -0.061559 0.224505
v -0.141827 -0.061562 0.224505
v 2.945532 -0.104781 0.201403
v -0.141827 -0.104784 0.201403
v 2.945532 -0.142665 0.170312
v -0.141828 -0.142668 0.170313
v 2.945532 -0.173755 0.132428
v -0.141827 -0.173759 0.132429
v 2.945532 -0.196858 0.089206
v -0.141827 -0.196862 0.089207
v 2.945532 -0.211084 0.042308
v -0.141827 -0.211088 0.042309
v 0.020807 0.022004 0.462189
v 0.079334 0.365279 0.462189
v 0.020807 0.372004 0.462189
v 0.020807 0.022005 -0.468269
v 0.020807 0.372005 -0.468268
v 0.079334 0.365279 -0.468269
v 0.135612 0.345362 0.462189
v 0.135612 0.345362 -0.468268
v 0.187478 0.313019 0.462189
v 0.187478 0.313019 -0.468268
v 0.232939 0.269492 0.462189
v 0.232939 0.269492 -0.468269
v 0.270247 0.216454 0.462189
v 0.270248 0.216454 -0.468269
v 0.297971 0.155943 0.462189
v 0.297971 0.155943 -0.468269
v 0.315042 0.090286 0.462189
v 0.315042 0.090286 -0.468269
v 0.320807 0.022004 0.462189
v 0.320807 0.022004 -0.468269
v 0.315042 -0.046277 0.462189
v 0.315042 -0.046278 -0.468269
v 0.297971 -0.111935 0.462188
v 0.297971 -0.111935 -0.468269
v 0.270248 -0.172445 0.462188
v 0.270248 -0.172445 -0.468269
v 0.232939 -0.225483 0.462188
v 0.232939 -0.225483 -0.468269
v 0.187478 -0.269010 0.462188
v 0.187478 -0.269010 -0.468269
v 0.135612 -0.301354 0.462188
v 0.135612 -0.301353 -0.468269
v 0.079334 -0.321271 0.462189
v 0.079335 -0.321270 -0.468269
v 0.020807 -0.327996 0.462188
v 0.020808 -0.327995 -0.468269
v -0.037720 -0.321271 0.462188
v -0.037720 -0.321270 -0.468269
v -0.093998 -0.301354 0.462188
v -0.093997 -0.301353 -0.468269
v -0.145864 -0.269010 0.462188
v -0.145864 -0.269010 -0.468269
v -0.191326 -0.225483 0.462189
v -0.191325 -0.225483 -0.468269
v -0.228633 -0.172445 0.462188
v -0.228633 -0.172446 -0.468269
v -0.256357 -0.111935 0.462189
v -0.256357 -0.111936 -0.468269
v -0.273429 -0.046277 0.462189
v -0.273429 -0.046278 -0.468269
v -0.279194 0.022005 0.462189
v -0.279194 0.022003 -0.468269
v -0.273429 0.090286 0.462189
v -0.273429 0.090285 -0.468269
v -0.256358 0.155944 0.462189
v -0.256358 0.155942 -0.468269
v -0.228634 0.216454 0.462189
v -0.228635 0.216453 -0.468269
v -0.191325 0.269492 0.462189
v -0.191326 0.269491 -0.468269
v -0.145864 0.313019 0.462189
v -0.145865 0.313018 -0.468269
v -0.093998 0.345362 0.462189
v -0.094000 0.345362 -0.468269
v -0.037720 0.365279 0.462189
v -0.037723 0.365279 -0.468268
vt 0.715447 0.831795
vt 0.640038 0.839222
vt 0.640038 0.824368
vt 0.715448 0.258206
vt 0.782275 0.222486
vt 0.787959 0.236209
vt 0.642936 0.809799
vt 0.774022 0.210135
vt 0.648621 0.796075
vt 0.763518 0.199631
vt 0.656873 0.783724
vt 0.751167 0.191379
vt 0.667377 0.773221
vt 0.737444 0.185694
vt 0.679728 0.764968
vt 0.722875 0.182796
vt 0.693451 0.759284
vt 0.708020 0.182796
vt 0.708020 0.756386
vt 0.693451 0.185694
vt 0.722875 0.756386
vt 0.679728 0.191379
vt 0.737443 0.759284
vt 0.667377 0.199631
vt 0.751167 0.764968
vt 0.656874 0.210135
vt 0.763518 0.773221
vt 0.648621 0.222486
vt 0.774022 0.783724
vt 0.642936 0.236209
vt 0.782274 0.796075
vt 0.640038 0.250778
vt 0.787959 0.809799
vt 0.640038 0.265633
vt 0.790857 0.824368
vt 0.642936 0.280202
vt 0.790856 0.839222
vt 0.648621 0.293925
vt 0.787959 0.853791
vt 0.656873 0.306276
vt 0.782274 0.867515
vt 0.667377 0.316780
vt 0.774022 0.879866
vt 0.679728 0.325032
vt 0.763518 0.890369
vt 0.693451 0.330717
vt 0.751167 0.898622
vt 0.708020 0.333615
vt 0.737444 0.904306
vt 0.722875 0.333615
vt 0.722874 0.907205
vt 0.737443 0.330717
vt 0.708020 0.907204
vt 0.751167 0.325033
vt 0.693451 0.904306
vt 0.763518 0.316780
vt 0.679727 0.898622
vt 0.774022 0.306277
vt 0.667377 0.890369
vt 0.782274 0.293926
vt 0.656873 0.879866
vt 0.787959 0.280202
vt 0.648620 0.867515
vt 0.790857 0.265633
vt 0.642936 0.853791
vt 0.790857 0.250779
vt 0.326713 0.987063
vt 0.323843 0.051299
vt 0.338544 0.051254
vt 0.341414 0.987018
vt 0.352548 0.051210
vt 0.355418 0.986975
vt 0.365316 0.051171
vt 0.368186 0.986935
vt 0.376358 0.051138
vt 0.379229 0.986902
vt 0.269308 0.051466
vt 0.266438 0.987230
vt 0.254956 0.987195
vt 0.257826 0.051431
vt 0.241856 0.987155
vt 0.244725 0.051391
vt 0.227641 0.987112
vt 0.230511 0.051348
vt 0.212858 0.987066
vt 0.215728 0.051302
vt 0.198075 0.987021
vt 0.200945 0.051257
vt 0.183861 0.986977
vt 0.186731 0.051214
vt 0.170761 0.986937
vt 0.173630 0.051173
vt 0.159278 0.986901
vt 0.162148 0.051138
vt 0.489149 0.051465
vt 0.486278 0.987229
vt 0.474379 0.987193
vt 0.477250 0.051429
vt 0.460974 0.987152
vt 0.463845 0.051388
vt 0.446578 0.987108
vt 0.449448 0.051344
vt 0.431744 0.987062
vt 0.434615 0.051298
vt 0.417043 0.987017
vt 0.419914 0.051254
vt 0.403039 0.986974
vt 0.405910 0.051211
vt 0.390271 0.986935
vt 0.393141 0.051171
vt 0.379229 0.986901
vt 0.382099 0.051138
vt 0.156409 0.051138
vt 0.147796 0.986937
vt 0.144926 0.051173
vt 0.134695 0.986977
vt 0.131826 0.051213
vt 0.120481 0.987020
vt 0.117611 0.051256
vt 0.105698 0.987066
vt 0.102828 0.051302
vt 0.090915 0.987111
vt 0.088046 0.051347
vt 0.076701 0.987154
vt 0.073831 0.051391
vt 0.063600 0.987195
vt 0.060731 0.051431
vt 0.052118 0.987230
vt 0.049248 0.051466
vt 0.272179 0.987230
vt 0.281207 0.051430
vt 0.284078 0.987194
vt 0.294612 0.051388
vt 0.297483 0.987152
vt 0.309008 0.051344
vt 0.311879 0.987108
vt 0.730667 0.650693
vt 0.757267 0.752833
vt 0.739768 0.756386
vt 0.730667 0.439308
vt 0.721565 0.333615
vt 0.739414 0.334124
vt 0.773744 0.745355
vt 0.756927 0.338675
vt 0.788566 0.734239
vt 0.773430 0.347093
vt 0.801162 0.719913
vt 0.788290 0.359055
vt 0.811049 0.702926
vt 0.800936 0.374102
vt 0.817847 0.683932
vt 0.810881 0.391654
vt 0.821295 0.663661
vt 0.817744 0.411037
vt 0.821260 0.642892
vt 0.821260 0.431507
vt 0.817744 0.622422
vt 0.821295 0.452276
vt 0.810881 0.603039
vt 0.817847 0.472547
vt 0.800936 0.585487
vt 0.811049 0.491541
vt 0.788290 0.570441
vt 0.801162 0.508527
vt 0.773430 0.558479
vt 0.788566 0.522854
vt 0.756927 0.550060
vt 0.773744 0.533970
vt 0.739414 0.545509
vt 0.757268 0.541448
vt 0.721565 0.545000
vt 0.739769 0.545000
vt 0.704066 0.548553
vt 0.721920 0.544492
vt 0.687589 0.556031
vt 0.704407 0.539940
vt 0.672768 0.567147
vt 0.687903 0.531522
vt 0.660171 0.581474
vt 0.673043 0.519560
vt 0.650284 0.598460
vt 0.660398 0.504514
vt 0.643486 0.617454
vt 0.650452 0.486963
vt 0.640038 0.637725
vt 0.643589 0.467579
vt 0.640073 0.658495
vt 0.640073 0.447110
vt 0.643589 0.678964
vt 0.640038 0.426340
vt 0.650452 0.698348
vt 0.643486 0.406069
vt 0.660397 0.715900
vt 0.650284 0.387075
vt 0.673043 0.730946
vt 0.660171 0.370089
vt 0.687903 0.742908
vt 0.672768 0.355762
vt 0.704407 0.751326
vt 0.687589 0.344646
vt 0.721920 0.755877
vt 0.704065 0.337168
vt 0.574873 0.616093
vt 0.592613 0.616131
vt 0.593477 0.897857
vt 0.575738 0.897818
vt 0.609671 0.616353
vt 0.610536 0.898079
vt 0.625393 0.616751
vt 0.626257 0.898476
vt 0.639174 0.617308
vt 0.640038 0.899034
vt 0.640038 0.333155
vt 0.623963 0.333204
vt 0.623098 0.051187
vt 0.639173 0.051138
vt 0.605622 0.333261
vt 0.604757 0.051243
vt 0.585722 0.333322
vt 0.584857 0.051304
vt 0.565026 0.333385
vt 0.564161 0.051368
vt 0.544330 0.333449
vt 0.543465 0.051431
vt 0.524430 0.333509
vt 0.523564 0.051492
vt 0.506089 0.333566
vt 0.505224 0.051549
vt 0.490014 0.333615
vt 0.489149 0.051598
vt 0.821295 0.545395
vt 0.835076 0.545953
vt 0.835940 0.827678
vt 0.822159 0.827121
vt 0.850798 0.546350
vt 0.851662 0.828076
vt 0.867856 0.546572
vt 0.868720 0.828298
vt 0.885596 0.546611
vt 0.886460 0.828336
vt 0.903335 0.546464
vt 0.904199 0.828189
vt 0.920391 0.546137
vt 0.921255 0.827862
vt 0.936110 0.545643
vt 0.936975 0.827368
vt 0.949888 0.545000
vt 0.950752 0.826726
vt 0.640038 0.615632
vt 0.623962 0.615681
vt 0.623098 0.333664
vt 0.639173 0.333615
vt 0.605622 0.615738
vt 0.604757 0.333721
vt 0.585721 0.615799
vt 0.584857 0.333782
vt 0.565026 0.615863
vt 0.564161 0.333845
vt 0.544330 0.615926
vt 0.543465 0.333909
vt 0.524429 0.615987
vt 0.523565 0.333970
vt 0.506089 0.616043
vt 0.505224 0.334026
vt 0.490013 0.616093
vt 0.489149 0.334075
vt 0.510581 0.617703
vt 0.524359 0.617061
vt 0.525222 0.898786
vt 0.511445 0.899428
vt 0.540077 0.616567
vt 0.540941 0.898292
vt 0.557134 0.616240
vt 0.557998 0.897965
vn 1.000000 0.000000 0.000000
vn 0.685690 -0.727866 0.000000
vn 0.685690 -0.713889 -0.141972
vn -1.000000 0.000000 0.000000
vn -0.685690 -0.713889 -0.142003
vn -0.685690 -0.727866 0.000000
vn 0.685690 -0.672475 -0.278542
vn -0.685690 -0.672475 -0.278542
vn 0.685690 -0.605182 -0.404370
vn -0.685690 -0.605182 -0.404370
vn 0.685690 -0.514664 -0.514695
vn -0.685690 -0.514664 -0.514695
vn 0.685690 -0.404370 -0.605213
vn -0.685690 -0.404370 -0.605213
vn 0.685690 -0.278542 -0.672475
vn -0.685690 -0.278542 -0.672475
vn 0.685690 -0.141972 -0.713889
vn -0.685690 -0.142003 -0.713889
vn 0.685690 0.000000 -0.727866
vn -0.685690 0.000000 -0.727866
vn 0.685690 0.142003 -0.713889
vn -0.685690 0.142003 -0.713889
vn 0.685690 0.278542 -0.672475
vn -0.685690 0.278542 -0.672475
vn 0.685690 0.404370 -0.605213
vn -0.685690 0.404370 -0.605182
vn 0.685690 0.514664 -0.514664
vn -0.685690 0.514664 -0.514695
vn 0.685690 0.605213 -0.404370
vn -0.685690 0.605182 -0.404370
vn 0.685690 0.672475 -0.278542
vn -0.685690 0.672475 -0.278542
vn 0.685659 0.713889 -0.142003
vn -0.685690 0.713889 -0.142003
vn 0.685690 0.727866 0.000000
vn -0.685690 0.727866 0.000000
vn 0.685690 0.713889 0.142003
vn -0.685690 0.713889 0.141972
vn 0.685690 0.672475 0.278542
vn -0.685690 0.672475 0.278542
vn 0.685690 0.605213 0.404370
vn -0.685690 0.605182 0.404370
vn 0.685690 0.514695 0.514664
vn -0.685690 0.514695 0.514664
vn 0.685690 0.404401 0.605182
vn -0.685690 0.404370 0.605182
vn 0.685690 0.278542 0.672475
vn -0.685690 0.278542 0.672475
vn 0.685690 0.142003 0.713889
vn -0.685690 0.141972 0.713889
vn 0.685690 0.000000 0.727866
vn -0.685690 0.000000 0.727866
vn 0.685690 -0.142003 0.713889
vn -0.685690 -0.142003 0.713889
vn 0.685690 -0.278542 0.672475
vn -0.685690 -0.278542 0.672475
vn 0.685690 -0.404370 0.605213
vn -0.685690 -0.404370 0.605213
vn 0.685690 -0.514695 0.514664
vn -0.685690 -0.514664 0.514695
vn 0.685690 -0.605213 0.404370
vn -0.685690 -0.605213 0.404370
vn 0.685690 -0.672475 0.278542
vn -0.685690 -0.672475 0.278542
vn 0.685690 -0.713889 0.142003
vn -0.685690 -0.713889 0.142003
vn 0.000000 0.000000 1.000000
vn 0.164647 0.711966 0.682607
vn 0.000000 0.731071 0.682272
vn 0.000000 0.000000 -0.999969
vn 0.000000 0.731071 -0.682272
vn 0.164647 0.711966 -0.682607
vn 0.316752 0.657643 0.683462
vn 0.316752 0.657643 -0.683462
vn 0.447218 0.575488 0.684652
vn 0.447218 0.575488 -0.684652
vn 0.551775 0.474349 0.685903
vn 0.551775 0.474349 -0.685934
vn 0.630055 0.361858 0.687063
vn 0.630055 0.361858 -0.687033
vn 0.683737 0.243385 0.687918
vn 0.683737 0.243385 -0.687918
vn 0.714866 0.122196 0.688467
vn 0.714866 0.122196 -0.688467
vn 0.725089 0.000000 0.688650
vn 0.725089 0.000000 -0.688650
vn 0.714866 -0.122196 0.688467
vn 0.714866 -0.122196 -0.688467
vn 0.683737 -0.243385 0.687918
vn 0.683737 -0.243385 -0.687918
vn 0.630055 -0.361858 0.687033
vn 0.630055 -0.361858 -0.687063
vn 0.551775 -0.474349 0.685903
vn 0.551775 -0.474349 -0.685934
vn 0.447218 -0.575488 0.684652
vn 0.447218 -0.575488 -0.684652
vn 0.316752 -0.657643 0.683462
vn 0.316752 -0.657643 -0.683462
vn 0.164647 -0.711966 0.682607
vn 0.164647 -0.711966 -0.682607
vn 0.000000 -0.731071 0.682272
vn 0.000000 -0.731071 -0.682272
vn -0.164647 -0.711966 0.682607
vn -0.164647 -0.711966 -0.682607
vn -0.316752 -0.657643 0.683462
vn -0.316752 -0.657643 -0.683462
vn -0.447218 -0.575488 0.684652
vn -0.447218 -0.575488 -0.684652
vn -0.551775 -0.474349 0.685903
vn -0.551775 -0.474349 -0.685903
vn -0.630055 -0.361858 0.687033
vn -0.630055 -0.361858 -0.687063
vn -0.683737 -0.243385 0.687918
vn -0.683737 -0.243385 -0.687918
vn -0.714866 -0.122196 0.688467
vn -0.714866 -0.122196 -0.688467
vn -0.725089 0.000000 0.688650
vn -0.725089 0.000000 -0.688650
vn -0.714866 0.122196 0.688467
vn -0.714866 0.122196 -0.688467
vn -0.683737 0.243385 0.687918
vn -0.683737 0.243385 -0.687918
vn -0.630055 0.361858 0.687063
vn -0.630055 0.361858 -0.687033
vn -0.551775 0.474349 0.685934
vn -0.551775 0.474349 -0.685934
vn -0.447218 0.575488 0.684652
vn -0.447218 0.575488 -0.684652
vn -0.316752 0.657643 0.683462
vn -0.316752 0.657643 -0.683462
vn -0.164647 0.711966 0.682607
vn -0.164647 0.711966 -0.682607
usemtl Material.001_CorrodedMetalBackground_preview.jpg
s 1
f 1/1/1 2/2/2 3/3/3
f 4/4/4 5/5/5 6/6/6
f 1/1/1 3/3/3 7/7/7
f 4/4/4 8/8/8 5/5/5
f 1/1/1 7/7/7 9/9/9
f 4/4/4 10/10/10 8/8/8
f 1/1/1 9/9/9 11/11/11
f 4/4/4 12/12/12 10/10/10
f 1/1/1 11/11/11 13/13/13
f 4/4/4 14/14/14 12/12/12
f 1/1/1 13/13/13 15/15/15
f 4/4/4 16/16/16 14/14/14
f 1/1/1 15/15/15 17/17/17
f 4/4/4 18/18/18 16/16/16
f 1/1/1 17/17/17 19/19/19
f 4/4/4 20/20/20 18/18/18
f 1/1/1 19/19/19 21/21/21
f 4/4/4 22/22/22 20/20/20
f 1/1/1 21/21/21 23/23/23
f 4/4/4 24/24/24 22/22/22
f 1/1/1 23/23/23 25/25/25
f 4/4/4 26/26/26 24/24/24
f 1/1/1 25/25/25 27/27/27
f 4/4/4 28/28/28 26/26/26
f 1/1/1 27/27/27 29/29/29
f 4/4/4 30/30/30 28/28/28
f 1/1/1 29/29/29 31/31/31
f 4/4/4 32/32/32 30/30/30
f 1/1/1 31/31/31 33/33/33
f 4/4/4 34/34/34 32/32/32
f 1/1/1 33/33/33 35/35/35
f 4/4/4 36/36/36 34/34/34
f 1/1/1 35/35/35 37/37/37
f 4/4/4 38/38/38 36/36/36
f 1/1/1 37/37/37 39/39/39
f 4/4/4 40/40/40 38/38/38
f 1/1/1 39/39/39 41/41/41
f 4/4/4 42/42/42 40/40/40
f 1/1/1 41/41/41 43/43/43
f 4/4/4 44/44/44 42/42/42
f 1/1/1 43/43/43 45/45/45
f 4/4/4 46/46/46 44/44/44
f 1/1/1 45/45/45 47/47/47
f 4/4/4 48/48/48 46/46/46
f 1/1/1 47/47/47 49/49/49
f 4/4/4 50/50/50 48/48/48
f 1/1/1 49/49/49 51/51/51
f 4/4/4 52/52/52 50/50/50
f 1/1/1 51/51/51 53/53/53
f 4/4/4 54/54/54 52/52/52
f 1/1/1 53/53/53 55/55/55
f 4/4/4 56/56/56 54/54/54
f 1/1/1 55/55/55 57/57/57
f 4/4/4 58/58/58 56/56/56
f 1/1/1 57/57/57 59/59/59
f 4/4/4 60/60/60 58/58/58
f 1/1/1 59/59/59 61/61/61
f 4/4/4 62/62/62 60/60/60
f 1/1/1 61/61/61 63/63/63
f 4/4/4 64/64/64 62/62/62
f 1/1/1 63/63/63 65/65/65
f 4/4/4 66/66/66 64/64/64
f 2/2/2 1/1/1 65/65/65
f 4/4/4 6/6/6 66/66/66
f 2/67/2 6/68/6 5/69/5
f 2/67/2 5/69/5 3/70/3
f 3/70/3 5/69/5 8/71/8
f 3/70/3 8/71/8 7/72/7
f 7/72/7 8/71/8 10/73/10
f 7/72/7 10/73/10 9/74/9
f 9/74/9 10/73/10 12/75/12
f 9/74/9 12/75/12 11/76/11
f 11/77/11 12/78/12 14/79/14
f 11/77/11 14/79/14 13/80/13
f 13/80/13 14/79/14 16/81/16
f 13/80/13 16/81/16 15/82/15
f 15/82/15 16/81/16 18/83/18
f 15/82/15 18/83/18 17/84/17
f 17/84/17 18/83/18 20/85/20
f 17/84/17 20/85/20 19/86/19
f 19/86/19 20/85/20 22/87/22
f 19/86/19 22/87/22 21/88/21
f 21/88/21 22/87/22 24/89/24
f 21/88/21 24/89/24 23/90/23
f 23/90/23 24/89/24 26/91/26
f 23/90/23 26/91/26 25/92/25
f 25/92/25 26/91/26 28/93/28
f 25/92/25 28/93/28 27/94/27
f 27/95/27 28/96/28 30/97/30
f 27/95/27 30/97/30 29/98/29
f 29/98/29 30/97/30 32/99/32
f 29/98/29 32/99/32 31/100/31
f 31/100/31 32/99/32 34/101/34
f 31/100/31 34/101/34 33/102/33
f 33/102/33 34/101/34 36/103/36
f 33/102/33 36/103/36 35/104/35
f 35/104/35 36/103/36 38/105/38
f 35/104/35 38/105/38 37/106/37
f 37/106/37 38/105/38 40/107/40
f 37/106/37 40/107/40 39/108/39
f 39/108/39 40/107/40 42/109/42
f 39/108/39 42/109/42 41/110/41
f 41/110/41 42/109/42 44/111/44
f 41/110/41 44/111/44 43/112/43
f 43/113/43 44/93/44 46/114/46
f 43/113/43 46/114/46 45/115/45
f 45/115/45 46/114/46 48/116/48
f 45/115/45 48/116/48 47/117/47
f 47/117/47 48/116/48 50/118/50
f 47/117/47 50/118/50 49/119/49
f 49/119/49 50/118/50 52/120/52
f 49/119/49 52/120/52 51/121/51
f 51/121/51 52/120/52 54/122/54
f 51/121/51 54/122/54 53/123/53
f 53/123/53 54/122/54 56/124/56
f 53/123/53 56/124/56 55/125/55
f 55/125/55 56/124/56 58/126/58
f 55/125/55 58/126/58 57/127/57
f 57/127/57 58/126/58 60/128/60
f 57/127/57 60/128/60 59/129/59
f 59/130/59 60/77/60 62/131/62
f 59/130/59 62/131/62 61/132/61
f 61/132/61 62/131/62 64/133/64
f 61/132/61 64/133/64 63/134/63
f 63/134/63 64/133/64 66/135/66
f 63/134/63 66/135/66 65/136/65
f 6/68/6 2/67/2 65/136/65
f 6/68/6 65/136/65 66/135/66
f 67/137/67 68/138/68 69/139/69
f 70/140/70 71/141/71 72/142/72
f 67/137/67 73/143/73 68/138/68
f 70/140/70 72/142/72 74/144/74
f 67/137/67 75/145/75 73/143/73
f 70/140/70 74/144/74 76/146/76
f 67/137/67 77/147/77 75/145/75
f 70/140/70 76/146/76 78/148/78
f 67/137/67 79/149/79 77/147/77
f 70/140/70 78/148/78 80/150/80
f 67/137/67 81/151/81 79/149/79
f 70/140/70 80/150/80 82/152/82
f 67/137/67 83/153/83 81/151/81
f 70/140/70 82/152/82 84/154/84
f 67/137/67 85/155/85 83/153/83
f 70/140/70 84/154/84 86/156/86
f 67/137/67 87/157/87 85/155/85
f 70/140/70 86/156/86 88/158/88
f 67/137/67 89/159/89 87/157/87
f 70/140/70 88/158/88 90/160/90
f 67/137/67 91/161/91 89/159/89
f 70/140/70 90/160/90 92/162/92
f 67/137/67 93/163/93 91/161/91
f 70/140/70 92/162/92 94/164/94
f 67/137/67 95/165/95 93/163/93
f 70/140/70 94/164/94 96/166/96
f 67/137/67 97/167/97 95/165/95
f 70/140/70 96/166/96 98/168/98
f 67/137/67 99/169/99 97/167/97
f 70/140/70 98/168/98 100/170/100
f 67/137/67 101/171/101 99/169/99
f 70/140/70 100/170/100 102/172/102
f 67/137/67 103/173/103 101/171/101
f 70/140/70 102/172/102 104/174/104
f 67/137/67 105/175/105 103/173/103
f 70/140/70 104/174/104 106/176/106
f 67/137/67 107/177/107 105/175/105
f 70/140/70 106/176/106 108/178/108
f 67/137/67 109/179/109 107/177/107
f 70/140/70 108/178/108 110/180/110
f 67/137/67 111/181/111 109/179/109
f 70/140/70 110/180/110 112/182/112
f 67/137/67 113/183/113 111/181/111
f 70/140/70 112/182/112 114/184/114
f 67/137/67 115/185/115 113/183/113
f 70/140/70 114/184/114 116/186/116
f 67/137/67 117/187/117 115/185/115
f 70/140/70 116/186/116 118/188/118
f 67/137/67 119/189/119 117/187/117
f 70/140/70 118/188/118 120/190/120
f 67/137/67 121/191/121 119/189/119
f 70/140/70 120/190/120 122/192/122
f 67/137/67 123/193/123 121/191/121
f 70/140/70 122/192/122 124/194/124
f 67/137/67 125/195/125 123/193/123
f 70/140/70 124/194/124 126/196/126
f 67/137/67 127/197/127 125/195/125
f 70/140/70 126/196/126 128/198/128
f 67/137/67 129/199/129 127/197/127
f 70/140/70 128/198/128 130/200/130
f 67/137/67 131/201/131 129/199/129
f 70/140/70 130/200/130 132/202/132
f 67/137/67 69/139/69 131/201/131
f 70/140/70 132/202/132 71/141/71
f 69/203/69 68/204/68 72/205/72
f 69/203/69 72/205/72 71/206/71
f 68/204/68 73/207/73 74/208/74
f 68/204/68 74/208/74 72/205/72
f 73/207/73 75/209/75 76/210/76
f 73/207/73 76/210/76 74/208/74
f 75/209/75 77/211/77 78/212/78
f 75/209/75 78/212/78 76/210/76
f 77/213/77 79/214/79 80/215/80
f 77/213/77 80/215/80 78/216/78
f 79/214/79 81/217/81 82/218/82
f 79/214/79 82/218/82 80/215/80
f 81/217/81 83/219/83 84/220/84
f 81/217/81 84/220/84 82/218/82
f 83/219/83 85/221/85 86/222/86
f 83/219/83 86/222/86 84/220/84
f 85/221/85 87/223/87 88/224/88
f 85/221/85 88/224/88 86/222/86
f 87/223/87 89/225/89 90/226/90
f 87/223/87 90/226/90 88/224/88
f 89/225/89 91/227/91 92/228/92
f 89/225/89 92/228/92 90/226/90
f 91/227/91 93/229/93 94/230/94
f 91/227/91 94/230/94 92/228/92
f 93/231/93 95/232/95 96/233/96
f 93/231/93 96/233/96 94/234/94
f 95/232/95 97/235/97 98/236/98
f 95/232/95 98/236/98 96/233/96
f 97/235/97 99/237/99 100/238/100
f 97/235/97 100/238/100 98/236/98
f 99/237/99 101/239/101 102/240/102
f 99/237/99 102/240/102 100/238/100
f 101/239/101 103/241/103 104/242/104
f 101/239/101 104/242/104 102/240/102
f 103/241/103 105/243/105 106/244/106
f 103/241/103 106/244/106 104/242/104
f 105/243/105 107/245/107 108/246/108
f 105/243/105 108/246/108 106/244/106
f 107/245/107 109/247/109 110/248/110
f 107/245/107 110/248/110 108/246/108
f 109/249/109 111/250/111 112/251/112
f 109/249/109 112/251/112 110/252/110
f 111/250/111 113/253/113 114/254/114
f 111/250/111 114/254/114 112/251/112
f 113/253/113 115/255/115 116/256/116
f 113/253/113 116/256/116 114/254/114
f 115/255/115 117/257/117 118/258/118
f 115/255/115 118/258/118 116/256/116
f 117/257/117 119/259/119 120/260/120
f 117/257/117 120/260/120 118/258/118
f 119/259/119 121/261/121 122/262/122
f 119/259/119 122/262/122 120/260/120
f 121/261/121 123/263/123 124/264/124
f 121/261/121 124/264/124 122/262/122
f 123/263/123 125/265/125 126/266/126
f 123/263/123 126/266/126 124/264/124
f 125/267/125 127/268/127 128/269/128
f 125/267/125 128/269/128 126/270/126
f 127/268/127 129/271/129 130/272/130
f 127/268/127 130/272/130 128/269/128
f 129/271/129 131/273/131 132/274/132
f 129/271/129 132/274/132 130/272/130
f 131/273/131 69/203/69 71/206/71
f 131/273/131 71/206/71 132/274/132
