# Blender v2.62 (sub 0) OBJ File: ''
# www.blender.org
mtllib pistonBar.mtl
o Mesh.001_Cylinder.001
v 4.782084 0.034112 -0.006464
v 4.782084 -0.215888 -0.006465
v 4.782084 -0.211084 -0.055237
v -0.141827 0.034107 -0.006465
v -0.141827 -0.211089 -0.055238
v -0.141827 -0.215893 -0.006466
v 4.782084 -0.196858 -0.102136
v -0.141828 -0.196862 -0.102137
v 4.782084 -0.173755 -0.145357
v -0.141828 -0.173760 -0.145358
v 4.782084 -0.142664 -0.183242
v -0.141827 -0.142669 -0.183242
v 4.782084 -0.104780 -0.214332
v -0.141827 -0.104785 -0.214333
v 4.782084 -0.061559 -0.237434
v -0.141827 -0.061563 -0.237435
v 4.782084 -0.014660 -0.251661
v -0.141828 -0.014665 -0.251662
v 4.782083 0.034112 -0.256464
v -0.141828 0.034108 -0.256465
v 4.782084 0.082885 -0.251661
v -0.141828 0.082881 -0.251662
v 4.782083 0.129783 -0.237434
v -0.141827 0.129779 -0.237435
v 4.782084 0.173005 -0.214332
v -0.141828 0.173000 -0.214332
v 4.782084 0.210889 -0.183241
v -0.141827 0.210884 -0.183242
v 4.782084 0.241980 -0.145357
v -0.141828 0.241975 -0.145358
v 4.782084 0.265082 -0.102136
v -0.141828 0.265077 -0.102136
v 4.782083 0.279309 -0.055237
v -0.141828 0.279304 -0.055238
v 4.782084 0.284112 -0.006465
v -0.141828 0.284107 -0.006465
v 4.782083 0.279308 0.042308
v -0.141828 0.279304 0.042307
v 4.782083 0.265082 0.089206
v -0.141828 0.265078 0.089205
v 4.782083 0.241980 0.132428
v -0.141828 0.241975 0.132427
v 4.782083 0.210889 0.170312
v -0.141827 0.210885 0.170311
v 4.782084 0.173005 0.201403
v -0.141828 0.173001 0.201402
v 4.782084 0.129783 0.224506
v -0.141828 0.129779 0.224505
v 4.782084 0.082885 0.238732
v -0.141827 0.082881 0.238731
v 4.782084 0.034112 0.243536
v -0.141827 0.034109 0.243535
v 4.782084 -0.014661 0.238732
v -0.141827 -0.014664 0.238731
v 4.782084 -0.061559 0.224505
v -0.141827 -0.061562 0.224505
v 4.782084 -0.104781 0.201403
v -0.141827 -0.104784 0.201403
v 4.782084 -0.142665 0.170312
v -0.141828 -0.142668 0.170313
v 4.782084 -0.173755 0.132428
v -0.141827 -0.173759 0.132429
v 4.782084 -0.196858 0.089206
v -0.141827 -0.196862 0.089207
v 4.782084 -0.211084 0.042308
v -0.141827 -0.211088 0.042309
v 0.020807 0.022004 0.462189
v 0.079334 0.365279 0.462189
v 0.020807 0.372004 0.462189
v 0.020807 0.022005 -0.468269
v 0.020807 0.372005 -0.468268
v 0.079334 0.365279 -0.468269
v 0.135612 0.345362 0.462189
v 0.135612 0.345362 -0.468268
v 0.187478 0.313019 0.462189
v 0.187478 0.313019 -0.468268
v 0.232939 0.269492 0.462189
v 0.232939 0.269492 -0.468269
v 0.270247 0.216454 0.462189
v 0.270248 0.216454 -0.468269
v 0.297971 0.155943 0.462189
v 0.297971 0.155943 -0.468269
v 0.315042 0.090286 0.462189
v 0.315042 0.090286 -0.468269
v 0.320807 0.022004 0.462189
v 0.320807 0.022004 -0.468269
v 0.315042 -0.046277 0.462189
v 0.315042 -0.046278 -0.468269
v 0.297971 -0.111935 0.462188
v 0.297971 -0.111935 -0.468269
v 0.270248 -0.172445 0.462188
v 0.270248 -0.172445 -0.468269
v 0.232939 -0.225483 0.462188
v 0.232939 -0.225483 -0.468269
v 0.187478 -0.269010 0.462188
v 0.187478 -0.269010 -0.468269
v 0.135612 -0.301354 0.462188
v 0.135612 -0.301353 -0.468269
v 0.079334 -0.321271 0.462189
v 0.079335 -0.321270 -0.468269
v 0.020807 -0.327996 0.462188
v 0.020808 -0.327995 -0.468269
v -0.037720 -0.321271 0.462188
v -0.037720 -0.321270 -0.468269
v -0.093998 -0.301354 0.462188
v -0.093997 -0.301353 -0.468269
v -0.145864 -0.269010 0.462188
v -0.145864 -0.269010 -0.468269
v -0.191326 -0.225483 0.462189
v -0.191325 -0.225483 -0.468269
v -0.228633 -0.172445 0.462188
v -0.228633 -0.172446 -0.468269
v -0.256357 -0.111935 0.462189
v -0.256357 -0.111936 -0.468269
v -0.273429 -0.046277 0.462189
v -0.273429 -0.046278 -0.468269
v -0.279194 0.022005 0.462189
v -0.279194 0.022003 -0.468269
v -0.273429 0.090286 0.462189
v -0.273429 0.090285 -0.468269
v -0.256358 0.155944 0.462189
v -0.256358 0.155942 -0.468269
v -0.228634 0.216454 0.462189
v -0.228635 0.216453 -0.468269
v -0.191325 0.269492 0.462189
v -0.191326 0.269491 -0.468269
v -0.145864 0.313019 0.462189
v -0.145865 0.313018 -0.468269
v -0.093998 0.345362 0.462189
v -0.094000 0.345362 -0.468269
v -0.037720 0.365279 0.462189
v -0.037723 0.365279 -0.468268
vt 0.686120 0.147010
vt 0.637595 0.151789
vt 0.637595 0.142231
vt 0.589070 0.147010
vt 0.632072 0.124025
vt 0.635730 0.132856
vt 0.639460 0.132856
vt 0.626762 0.116077
vt 0.643118 0.124025
vt 0.620003 0.109318
vt 0.648428 0.116077
vt 0.612055 0.104007
vt 0.655187 0.109318
vt 0.603224 0.100349
vt 0.663135 0.104008
vt 0.593849 0.098485
vt 0.671966 0.100350
vt 0.584290 0.098485
vt 0.681341 0.098485
vt 0.574915 0.100350
vt 0.690900 0.098485
vt 0.566084 0.104007
vt 0.700275 0.100350
vt 0.558136 0.109318
vt 0.709106 0.104007
vt 0.551378 0.116077
vt 0.717053 0.109318
vt 0.546067 0.124025
vt 0.723812 0.116077
vt 0.542409 0.132856
vt 0.729123 0.124025
vt 0.540544 0.142231
vt 0.732781 0.132856
vt 0.540544 0.151789
vt 0.734646 0.142231
vt 0.542409 0.161164
vt 0.734645 0.151789
vt 0.546067 0.169995
vt 0.732781 0.161164
vt 0.551377 0.177943
vt 0.729123 0.169995
vt 0.558136 0.184702
vt 0.723812 0.177943
vt 0.566084 0.190013
vt 0.717053 0.184702
vt 0.574915 0.193671
vt 0.709106 0.190013
vt 0.584290 0.195535
vt 0.700275 0.193671
vt 0.593849 0.195535
vt 0.690899 0.195535
vt 0.603224 0.193671
vt 0.681341 0.195535
vt 0.612055 0.190013
vt 0.671966 0.193671
vt 0.620003 0.184702
vt 0.663135 0.190013
vt 0.626762 0.177943
vt 0.655187 0.184702
vt 0.632072 0.169996
vt 0.648428 0.177943
vt 0.635730 0.161165
vt 0.643118 0.169995
vt 0.637595 0.151790
vt 0.639460 0.161164
vt 0.337823 0.974225
vt 0.334877 0.013867
vt 0.344337 0.013838
vt 0.347283 0.974195
vt 0.353348 0.013810
vt 0.356294 0.974168
vt 0.361565 0.013785
vt 0.364510 0.974143
vt 0.368670 0.013763
vt 0.371616 0.974121
vt 0.299784 0.013975
vt 0.296839 0.974332
vt 0.289450 0.974310
vt 0.292395 0.013952
vt 0.281020 0.974284
vt 0.283965 0.013927
vt 0.271873 0.974256
vt 0.274818 0.013898
vt 0.262360 0.974227
vt 0.265306 0.013870
vt 0.252848 0.974198
vt 0.255793 0.013840
vt 0.243701 0.974169
vt 0.246646 0.013812
vt 0.235271 0.974144
vt 0.238216 0.013786
vt 0.227882 0.974121
vt 0.230827 0.013763
vt 0.443448 0.013975
vt 0.440502 0.974332
vt 0.432845 0.974309
vt 0.435791 0.013951
vt 0.424218 0.974282
vt 0.427165 0.013925
vt 0.414955 0.974254
vt 0.417901 0.013896
vt 0.405409 0.974225
vt 0.408356 0.013867
vt 0.395949 0.974195
vt 0.398895 0.013838
vt 0.386938 0.974168
vt 0.389884 0.013811
vt 0.378722 0.974143
vt 0.381668 0.013785
vt 0.374562 0.013763
vt 0.224936 0.013763
vt 0.227882 0.974120
vt 0.220493 0.974143
vt 0.217547 0.013786
vt 0.212063 0.974169
vt 0.209118 0.013812
vt 0.202916 0.974197
vt 0.199971 0.013840
vt 0.193404 0.974226
vt 0.190458 0.013869
vt 0.183891 0.974255
vt 0.180945 0.013898
vt 0.174744 0.974284
vt 0.171798 0.013926
vt 0.166314 0.974309
vt 0.163368 0.013952
vt 0.158925 0.974332
vt 0.155979 0.013975
vt 0.302731 0.974332
vt 0.307441 0.013951
vt 0.310388 0.974309
vt 0.316067 0.013925
vt 0.319014 0.974282
vt 0.325331 0.013896
vt 0.328277 0.974254
vt 0.501767 0.445320
vt 0.518884 0.511046
vt 0.507624 0.513333
vt 0.598863 0.263548
vt 0.593006 0.195535
vt 0.604492 0.195863
vt 0.529487 0.506234
vt 0.615761 0.198792
vt 0.539024 0.499081
vt 0.626381 0.204209
vt 0.547130 0.489863
vt 0.635943 0.211906
vt 0.553492 0.478932
vt 0.644081 0.221588
vt 0.557867 0.466709
vt 0.650481 0.232883
vt 0.560085 0.453665
vt 0.654896 0.245356
vt 0.560063 0.440300
vt 0.657159 0.258528
vt 0.557800 0.427128
vt 0.657182 0.271893
vt 0.553384 0.414655
vt 0.654963 0.284937
vt 0.546985 0.403360
vt 0.650589 0.297160
vt 0.538847 0.393678
vt 0.644226 0.308090
vt 0.529285 0.385981
vt 0.636120 0.317309
vt 0.518665 0.380564
vt 0.626583 0.324462
vt 0.507396 0.377635
vt 0.615981 0.329274
vt 0.495910 0.377308
vt 0.604720 0.331560
vt 0.484649 0.379594
vt 0.593234 0.331233
vt 0.474047 0.384406
vt 0.581965 0.328304
vt 0.464509 0.391559
vt 0.571345 0.322887
vt 0.456403 0.400778
vt 0.561783 0.315190
vt 0.450041 0.411709
vt 0.553645 0.305508
vt 0.445667 0.423931
vt 0.547245 0.294214
vt 0.443448 0.436975
vt 0.542829 0.281740
vt 0.443470 0.450341
vt 0.540566 0.268568
vt 0.445733 0.463513
vt 0.540544 0.255203
vt 0.450149 0.475986
vt 0.542763 0.242159
vt 0.456549 0.487280
vt 0.547137 0.229937
vt 0.464686 0.496962
vt 0.553500 0.219006
vt 0.474249 0.504660
vt 0.561605 0.209787
vt 0.484869 0.510077
vt 0.571142 0.202634
vt 0.496138 0.513005
vt 0.581745 0.197822
vt 0.601457 0.377308
vt 0.612872 0.377332
vt 0.613428 0.558621
vt 0.602013 0.558596
vt 0.623849 0.377475
vt 0.624405 0.558764
vt 0.633966 0.377731
vt 0.634522 0.559019
vt 0.642834 0.378090
vt 0.643390 0.559378
vt 0.540544 0.195240
vt 0.530200 0.195271
vt 0.529643 0.013795
vt 0.539988 0.013763
vt 0.518398 0.195307
vt 0.517841 0.013831
vt 0.505592 0.195347
vt 0.505035 0.013871
vt 0.492274 0.195388
vt 0.491718 0.013911
vt 0.478957 0.195428
vt 0.478400 0.013952
vt 0.466151 0.195468
vt 0.465594 0.013992
vt 0.454349 0.195504
vt 0.453792 0.014028
vt 0.444005 0.195535
vt 0.443448 0.014060
vt 0.643390 0.377562
vt 0.652258 0.377921
vt 0.652814 0.559209
vt 0.643946 0.558850
vt 0.662375 0.378176
vt 0.662931 0.559465
vt 0.673352 0.378319
vt 0.673908 0.559608
vt 0.684767 0.378344
vt 0.685323 0.559632
vt 0.696182 0.378249
vt 0.696738 0.559538
vt 0.707158 0.378039
vt 0.707714 0.559327
vt 0.717273 0.377721
vt 0.717829 0.559009
vt 0.726138 0.377308
vt 0.726694 0.558596
vt 0.540544 0.377012
vt 0.530200 0.377043
vt 0.529643 0.195567
vt 0.539987 0.195535
vt 0.518398 0.377079
vt 0.517841 0.195603
vt 0.505592 0.377119
vt 0.505035 0.195643
vt 0.492274 0.377160
vt 0.491718 0.195684
vt 0.478957 0.377200
vt 0.478400 0.195724
vt 0.466151 0.377240
vt 0.465594 0.195764
vt 0.454349 0.377276
vt 0.453792 0.195800
vt 0.444004 0.377308
vt 0.443448 0.195832
vt 0.560085 0.378344
vt 0.568951 0.377931
vt 0.569507 0.559219
vt 0.560641 0.559632
vt 0.579066 0.377613
vt 0.579622 0.558901
vt 0.590042 0.377402
vt 0.590598 0.558691
vn 1.000000 0.000000 0.000000
vn 0.685690 -0.727866 0.000000
vn 0.685690 -0.713889 -0.141972
vn -1.000000 0.000000 0.000000
vn -0.685690 -0.713889 -0.142003
vn -0.685690 -0.727866 0.000000
vn 0.685690 -0.672475 -0.278542
vn -0.685690 -0.672475 -0.278542
vn 0.685690 -0.605182 -0.404370
vn -0.685690 -0.605182 -0.404370
vn 0.685690 -0.514664 -0.514695
vn -0.685690 -0.514664 -0.514695
vn 0.685690 -0.404370 -0.605213
vn -0.685690 -0.404370 -0.605213
vn 0.685690 -0.278542 -0.672475
vn -0.685690 -0.278542 -0.672475
vn 0.685690 -0.141972 -0.713889
vn -0.685690 -0.142003 -0.713889
vn 0.685690 0.000000 -0.727866
vn -0.685690 0.000000 -0.727866
vn 0.685690 0.142003 -0.713889
vn -0.685690 0.142003 -0.713889
vn 0.685690 0.278542 -0.672475
vn -0.685690 0.278542 -0.672475
vn 0.685690 0.404370 -0.605213
vn -0.685690 0.404370 -0.605182
vn 0.685690 0.514664 -0.514664
vn -0.685690 0.514664 -0.514695
vn 0.685690 0.605213 -0.404370
vn -0.685690 0.605182 -0.404370
vn 0.685690 0.672475 -0.278542
vn -0.685690 0.672475 -0.278542
vn 0.685659 0.713889 -0.142003
vn -0.685690 0.713889 -0.142003
vn 0.685690 0.727866 0.000000
vn -0.685690 0.727866 0.000000
vn 0.685690 0.713889 0.142003
vn -0.685690 0.713889 0.141972
vn 0.685690 0.672475 0.278542
vn -0.685690 0.672475 0.278542
vn 0.685690 0.605213 0.404370
vn -0.685690 0.605182 0.404370
vn 0.685690 0.514695 0.514664
vn -0.685690 0.514695 0.514664
vn 0.685690 0.404401 0.605182
vn -0.685690 0.404370 0.605182
vn 0.685690 0.278542 0.672475
vn -0.685690 0.278542 0.672475
vn 0.685690 0.142003 0.713889
vn -0.685690 0.141972 0.713889
vn 0.685690 0.000000 0.727866
vn -0.685690 0.000000 0.727866
vn 0.685690 -0.142003 0.713889
vn -0.685690 -0.142003 0.713889
vn 0.685690 -0.278542 0.672475
vn -0.685690 -0.278542 0.672475
vn 0.685690 -0.404370 0.605213
vn -0.685690 -0.404370 0.605213
vn 0.685690 -0.514695 0.514664
vn -0.685690 -0.514664 0.514695
vn 0.685690 -0.605213 0.404370
vn -0.685690 -0.605213 0.404370
vn 0.685690 -0.672475 0.278542
vn -0.685690 -0.672475 0.278542
vn 0.685690 -0.713889 0.142003
vn -0.685690 -0.713889 0.142003
vn 0.000000 0.000000 1.000000
vn 0.164647 0.711966 0.682607
vn 0.000000 0.731071 0.682272
vn 0.000000 0.000000 -0.999969
vn 0.000000 0.731071 -0.682272
vn 0.164647 0.711966 -0.682607
vn 0.316752 0.657643 0.683462
vn 0.316752 0.657643 -0.683462
vn 0.447218 0.575488 0.684652
vn 0.447218 0.575488 -0.684652
vn 0.551775 0.474349 0.685903
vn 0.551775 0.474349 -0.685934
vn 0.630055 0.361858 0.687063
vn 0.630055 0.361858 -0.687033
vn 0.683737 0.243385 0.687918
vn 0.683737 0.243385 -0.687918
vn 0.714866 0.122196 0.688467
vn 0.714866 0.122196 -0.688467
vn 0.725089 0.000000 0.688650
vn 0.725089 0.000000 -0.688650
vn 0.714866 -0.122196 0.688467
vn 0.714866 -0.122196 -0.688467
vn 0.683737 -0.243385 0.687918
vn 0.683737 -0.243385 -0.687918
vn 0.630055 -0.361858 0.687033
vn 0.630055 -0.361858 -0.687063
vn 0.551775 -0.474349 0.685903
vn 0.551775 -0.474349 -0.685934
vn 0.447218 -0.575488 0.684652
vn 0.447218 -0.575488 -0.684652
vn 0.316752 -0.657643 0.683462
vn 0.316752 -0.657643 -0.683462
vn 0.164647 -0.711966 0.682607
vn 0.164647 -0.711966 -0.682607
vn 0.000000 -0.731071 0.682272
vn 0.000000 -0.731071 -0.682272
vn -0.164647 -0.711966 0.682607
vn -0.164647 -0.711966 -0.682607
vn -0.316752 -0.657643 0.683462
vn -0.316752 -0.657643 -0.683462
vn -0.447218 -0.575488 0.684652
vn -0.447218 -0.575488 -0.684652
vn -0.551775 -0.474349 0.685903
vn -0.551775 -0.474349 -0.685903
vn -0.630055 -0.361858 0.687033
vn -0.630055 -0.361858 -0.687063
vn -0.683737 -0.243385 0.687918
vn -0.683737 -0.243385 -0.687918
vn -0.714866 -0.122196 0.688467
vn -0.714866 -0.122196 -0.688467
vn -0.725089 0.000000 0.688650
vn -0.725089 0.000000 -0.688650
vn -0.714866 0.122196 0.688467
vn -0.714866 0.122196 -0.688467
vn -0.683737 0.243385 0.687918
vn -0.683737 0.243385 -0.687918
vn -0.630055 0.361858 0.687063
vn -0.630055 0.361858 -0.687033
vn -0.551775 0.474349 0.685934
vn -0.551775 0.474349 -0.685934
vn -0.447218 0.575488 0.684652
vn -0.447218 0.575488 -0.684652
vn -0.316752 0.657643 0.683462
vn -0.316752 0.657643 -0.683462
vn -0.164647 0.711966 0.682607
vn -0.164647 0.711966 -0.682607
usemtl Material.003_CorrodedMetalBackground_preview.jpg
s 1
f 1/1/1 2/2/2 3/3/3
f 4/4/4 5/5/5 6/6/6
f 1/1/1 3/3/3 7/7/7
f 4/4/4 8/8/8 5/5/5
f 1/1/1 7/7/7 9/9/9
f 4/4/4 10/10/10 8/8/8
f 1/1/1 9/9/9 11/11/11
f 4/4/4 12/12/12 10/10/10
f 1/1/1 11/11/11 13/13/13
f 4/4/4 14/14/14 12/12/12
f 1/1/1 13/13/13 15/15/15
f 4/4/4 16/16/16 14/14/14
f 1/1/1 15/15/15 17/17/17
f 4/4/4 18/18/18 16/16/16
f 1/1/1 17/17/17 19/19/19
f 4/4/4 20/20/20 18/18/18
f 1/1/1 19/19/19 21/21/21
f 4/4/4 22/22/22 20/20/20
f 1/1/1 21/21/21 23/23/23
f 4/4/4 24/24/24 22/22/22
f 1/1/1 23/23/23 25/25/25
f 4/4/4 26/26/26 24/24/24
f 1/1/1 25/25/25 27/27/27
f 4/4/4 28/28/28 26/26/26
f 1/1/1 27/27/27 29/29/29
f 4/4/4 30/30/30 28/28/28
f 1/1/1 29/29/29 31/31/31
f 4/4/4 32/32/32 30/30/30
f 1/1/1 31/31/31 33/33/33
f 4/4/4 34/34/34 32/32/32
f 1/1/1 33/33/33 35/35/35
f 4/4/4 36/36/36 34/34/34
f 1/1/1 35/35/35 37/37/37
f 4/4/4 38/38/38 36/36/36
f 1/1/1 37/37/37 39/39/39
f 4/4/4 40/40/40 38/38/38
f 1/1/1 39/39/39 41/41/41
f 4/4/4 42/42/42 40/40/40
f 1/1/1 41/41/41 43/43/43
f 4/4/4 44/44/44 42/42/42
f 1/1/1 43/43/43 45/45/45
f 4/4/4 46/46/46 44/44/44
f 1/1/1 45/45/45 47/47/47
f 4/4/4 48/48/48 46/46/46
f 1/1/1 47/47/47 49/49/49
f 4/4/4 50/50/50 48/48/48
f 1/1/1 49/49/49 51/51/51
f 4/4/4 52/52/52 50/50/50
f 1/1/1 51/51/51 53/53/53
f 4/4/4 54/54/54 52/52/52
f 1/1/1 53/53/53 55/55/55
f 4/4/4 56/56/56 54/54/54
f 1/1/1 55/55/55 57/57/57
f 4/4/4 58/58/58 56/56/56
f 1/1/1 57/57/57 59/59/59
f 4/4/4 60/60/60 58/58/58
f 1/1/1 59/59/59 61/61/61
f 4/4/4 62/62/62 60/60/60
f 1/1/1 61/61/61 63/63/63
f 4/4/4 64/64/64 62/62/62
f 1/1/1 63/63/63 65/65/65
f 4/4/4 66/3/66 64/64/64
f 2/2/2 1/1/1 65/65/65
f 4/4/4 6/6/6 66/3/66
f 2/66/2 6/67/6 5/68/5
f 2/66/2 5/68/5 3/69/3
f 3/69/3 5/68/5 8/70/8
f 3/69/3 8/70/8 7/71/7
f 7/71/7 8/70/8 10/72/10
f 7/71/7 10/72/10 9/73/9
f 9/73/9 10/72/10 12/74/12
f 9/73/9 12/74/12 11/75/11
f 11/76/11 12/77/12 14/78/14
f 11/76/11 14/78/14 13/79/13
f 13/79/13 14/78/14 16/80/16
f 13/79/13 16/80/16 15/81/15
f 15/81/15 16/80/16 18/82/18
f 15/81/15 18/82/18 17/83/17
f 17/83/17 18/82/18 20/84/20
f 17/83/17 20/84/20 19/85/19
f 19/85/19 20/84/20 22/86/22
f 19/85/19 22/86/22 21/87/21
f 21/87/21 22/86/22 24/88/24
f 21/87/21 24/88/24 23/89/23
f 23/89/23 24/88/24 26/90/26
f 23/89/23 26/90/26 25/91/25
f 25/91/25 26/90/26 28/92/28
f 25/91/25 28/92/28 27/93/27
f 27/94/27 28/95/28 30/96/30
f 27/94/27 30/96/30 29/97/29
f 29/97/29 30/96/30 32/98/32
f 29/97/29 32/98/32 31/99/31
f 31/99/31 32/98/32 34/100/34
f 31/99/31 34/100/34 33/101/33
f 33/101/33 34/100/34 36/102/36
f 33/101/33 36/102/36 35/103/35
f 35/103/35 36/102/36 38/104/38
f 35/103/35 38/104/38 37/105/37
f 37/105/37 38/104/38 40/106/40
f 37/105/37 40/106/40 39/107/39
f 39/107/39 40/106/40 42/108/42
f 39/107/39 42/108/42 41/109/41
f 41/109/41 42/108/42 44/75/44
f 41/109/41 44/75/44 43/110/43
f 43/111/43 44/112/44 46/113/46
f 43/111/43 46/113/46 45/114/45
f 45/114/45 46/113/46 48/115/48
f 45/114/45 48/115/48 47/116/47
f 47/116/47 48/115/48 50/117/50
f 47/116/47 50/117/50 49/118/49
f 49/118/49 50/117/50 52/119/52
f 49/118/49 52/119/52 51/120/51
f 51/120/51 52/119/52 54/121/54
f 51/120/51 54/121/54 53/122/53
f 53/122/53 54/121/54 56/123/56
f 53/122/53 56/123/56 55/124/55
f 55/124/55 56/123/56 58/125/58
f 55/124/55 58/125/58 57/126/57
f 57/126/57 58/125/58 60/127/60
f 57/126/57 60/127/60 59/128/59
f 59/129/59 60/76/60 62/130/62
f 59/129/59 62/130/62 61/131/61
f 61/131/61 62/130/62 64/132/64
f 61/131/61 64/132/64 63/133/63
f 63/133/63 64/132/64 66/134/66
f 63/133/63 66/134/66 65/135/65
f 6/67/6 2/66/2 65/135/65
f 6/67/6 65/135/65 66/134/66
f 67/136/67 68/137/68 69/138/69
f 70/139/70 71/140/71 72/141/72
f 67/136/67 73/142/73 68/137/68
f 70/139/70 72/141/72 74/143/74
f 67/136/67 75/144/75 73/142/73
f 70/139/70 74/143/74 76/145/76
f 67/136/67 77/146/77 75/144/75
f 70/139/70 76/145/76 78/147/78
f 67/136/67 79/148/79 77/146/77
f 70/139/70 78/147/78 80/149/80
f 67/136/67 81/150/81 79/148/79
f 70/139/70 80/149/80 82/151/82
f 67/136/67 83/152/83 81/150/81
f 70/139/70 82/151/82 84/153/84
f 67/136/67 85/154/85 83/152/83
f 70/139/70 84/153/84 86/155/86
f 67/136/67 87/156/87 85/154/85
f 70/139/70 86/155/86 88/157/88
f 67/136/67 89/158/89 87/156/87
f 70/139/70 88/157/88 90/159/90
f 67/136/67 91/160/91 89/158/89
f 70/139/70 90/159/90 92/161/92
f 67/136/67 93/162/93 91/160/91
f 70/139/70 92/161/92 94/163/94
f 67/136/67 95/164/95 93/162/93
f 70/139/70 94/163/94 96/165/96
f 67/136/67 97/166/97 95/164/95
f 70/139/70 96/165/96 98/167/98
f 67/136/67 99/168/99 97/166/97
f 70/139/70 98/167/98 100/169/100
f 67/136/67 101/170/101 99/168/99
f 70/139/70 100/169/100 102/171/102
f 67/136/67 103/172/103 101/170/101
f 70/139/70 102/171/102 104/173/104
f 67/136/67 105/174/105 103/172/103
f 70/139/70 104/173/104 106/175/106
f 67/136/67 107/176/107 105/174/105
f 70/139/70 106/175/106 108/177/108
f 67/136/67 109/178/109 107/176/107
f 70/139/70 108/177/108 110/179/110
f 67/136/67 111/180/111 109/178/109
f 70/139/70 110/179/110 112/181/112
f 67/136/67 113/182/113 111/180/111
f 70/139/70 112/181/112 114/183/114
f 67/136/67 115/184/115 113/182/113
f 70/139/70 114/183/114 116/185/116
f 67/136/67 117/186/117 115/184/115
f 70/139/70 116/185/116 118/187/118
f 67/136/67 119/188/119 117/186/117
f 70/139/70 118/187/118 120/189/120
f 67/136/67 121/190/121 119/188/119
f 70/139/70 120/189/120 122/191/122
f 67/136/67 123/192/123 121/190/121
f 70/139/70 122/191/122 124/193/124
f 67/136/67 125/194/125 123/192/123
f 70/139/70 124/193/124 126/195/126
f 67/136/67 127/196/127 125/194/125
f 70/139/70 126/195/126 128/197/128
f 67/136/67 129/198/129 127/196/127
f 70/139/70 128/197/128 130/199/130
f 67/136/67 131/200/131 129/198/129
f 70/139/70 130/199/130 132/201/132
f 67/136/67 69/138/69 131/200/131
f 70/139/70 132/201/132 71/140/71
f 69/202/69 68/203/68 72/204/72
f 69/202/69 72/204/72 71/205/71
f 68/203/68 73/206/73 74/207/74
f 68/203/68 74/207/74 72/204/72
f 73/206/73 75/208/75 76/209/76
f 73/206/73 76/209/76 74/207/74
f 75/208/75 77/210/77 78/211/78
f 75/208/75 78/211/78 76/209/76
f 77/212/77 79/213/79 80/214/80
f 77/212/77 80/214/80 78/215/78
f 79/213/79 81/216/81 82/217/82
f 79/213/79 82/217/82 80/214/80
f 81/216/81 83/218/83 84/219/84
f 81/216/81 84/219/84 82/217/82
f 83/218/83 85/220/85 86/221/86
f 83/218/83 86/221/86 84/219/84
f 85/220/85 87/222/87 88/223/88
f 85/220/85 88/223/88 86/221/86
f 87/222/87 89/224/89 90/225/90
f 87/222/87 90/225/90 88/223/88
f 89/224/89 91/226/91 92/227/92
f 89/224/89 92/227/92 90/225/90
f 91/226/91 93/228/93 94/229/94
f 91/226/91 94/229/94 92/227/92
f 93/230/93 95/231/95 96/232/96
f 93/230/93 96/232/96 94/233/94
f 95/231/95 97/234/97 98/235/98
f 95/231/95 98/235/98 96/232/96
f 97/234/97 99/236/99 100/237/100
f 97/234/97 100/237/100 98/235/98
f 99/236/99 101/238/101 102/239/102
f 99/236/99 102/239/102 100/237/100
f 101/238/101 103/240/103 104/241/104
f 101/238/101 104/241/104 102/239/102
f 103/240/103 105/242/105 106/243/106
f 103/240/103 106/243/106 104/241/104
f 105/242/105 107/244/107 108/245/108
f 105/242/105 108/245/108 106/243/106
f 107/244/107 109/246/109 110/247/110
f 107/244/107 110/247/110 108/245/108
f 109/248/109 111/249/111 112/250/112
f 109/248/109 112/250/112 110/251/110
f 111/249/111 113/252/113 114/253/114
f 111/249/111 114/253/114 112/250/112
f 113/252/113 115/254/115 116/255/116
f 113/252/113 116/255/116 114/253/114
f 115/254/115 117/256/117 118/257/118
f 115/254/115 118/257/118 116/255/116
f 117/256/117 119/258/119 120/259/120
f 117/256/117 120/259/120 118/257/118
f 119/258/119 121/260/121 122/261/122
f 119/258/119 122/261/122 120/259/120
f 121/260/121 123/262/123 124/263/124
f 121/260/121 124/263/124 122/261/122
f 123/262/123 125/264/125 126/265/126
f 123/262/123 126/265/126 124/263/124
f 125/266/125 127/267/127 128/268/128
f 125/266/125 128/268/128 126/269/126
f 127/267/127 129/270/129 130/271/130
f 127/267/127 130/271/130 128/268/128
f 129/270/129 131/272/131 132/273/132
f 129/270/129 132/273/132 130/271/130
f 131/272/131 69/202/69 71/205/71
f 131/272/131 71/205/71 132/273/132
